<svg width="1980" height="1080" viewBox="0 0 1980 1080" fill="none" xmlns="http://www.w3.org/2000/svg">
<rect width="1980" height="1080" fill="#D9D9D9"/>
<rect x="89" y="64" width="148" height="73" fill="#D9D9D9" stroke="black" stroke-width="2"/>
<path d="M120.155 97.6378C120.098 97.0649 119.854 96.6198 119.423 96.3026C118.992 95.9853 118.408 95.8267 117.669 95.8267C117.167 95.8267 116.743 95.8977 116.398 96.0398C116.052 96.1771 115.787 96.3688 115.602 96.6151C115.422 96.8613 115.332 97.1406 115.332 97.4531C115.323 97.7135 115.377 97.9408 115.496 98.1349C115.619 98.3291 115.787 98.4972 116 98.6392C116.213 98.7765 116.459 98.8973 116.739 99.0014C117.018 99.1009 117.316 99.1861 117.634 99.2571L118.94 99.5696C119.575 99.7116 120.157 99.901 120.688 100.138C121.218 100.375 121.677 100.666 122.065 101.011C122.454 101.357 122.754 101.764 122.967 102.233C123.185 102.702 123.296 103.239 123.301 103.845C123.296 104.735 123.069 105.507 122.619 106.161C122.174 106.809 121.53 107.313 120.688 107.673C119.849 108.028 118.839 108.206 117.655 108.206C116.481 108.206 115.458 108.026 114.587 107.666C113.72 107.306 113.043 106.774 112.555 106.068C112.072 105.358 111.819 104.48 111.795 103.433H114.771C114.804 103.921 114.944 104.328 115.19 104.655C115.441 104.977 115.775 105.221 116.192 105.386C116.613 105.547 117.089 105.628 117.619 105.628C118.14 105.628 118.592 105.552 118.976 105.401C119.364 105.249 119.665 105.038 119.878 104.768C120.091 104.499 120.197 104.188 120.197 103.838C120.197 103.511 120.1 103.237 119.906 103.014C119.717 102.792 119.438 102.602 119.068 102.446C118.704 102.29 118.256 102.148 117.726 102.02L116.142 101.622C114.916 101.324 113.947 100.857 113.237 100.223C112.527 99.5885 112.174 98.7339 112.179 97.6591C112.174 96.7784 112.409 96.009 112.882 95.3509C113.36 94.6927 114.016 94.179 114.849 93.8097C115.683 93.4403 116.63 93.2557 117.69 93.2557C118.77 93.2557 119.712 93.4403 120.517 93.8097C121.327 94.179 121.956 94.6927 122.406 95.3509C122.856 96.009 123.088 96.7713 123.102 97.6378H120.155ZM131.115 97.0909V99.3636H124.546V97.0909H131.115ZM126.037 94.4773H129.063V104.648C129.063 104.927 129.105 105.145 129.191 105.301C129.276 105.453 129.394 105.559 129.546 105.621C129.702 105.682 129.882 105.713 130.086 105.713C130.228 105.713 130.37 105.701 130.512 105.678C130.654 105.649 130.763 105.628 130.838 105.614L131.314 107.865C131.163 107.912 130.95 107.967 130.675 108.028C130.4 108.095 130.067 108.135 129.674 108.149C128.944 108.178 128.305 108.08 127.756 107.858C127.212 107.635 126.788 107.29 126.485 106.821C126.182 106.352 126.033 105.76 126.037 105.045V94.4773ZM136.197 108.206C135.501 108.206 134.881 108.085 134.336 107.844C133.792 107.598 133.361 107.235 133.044 106.757C132.731 106.274 132.575 105.673 132.575 104.953C132.575 104.347 132.686 103.838 132.909 103.426C133.131 103.014 133.434 102.683 133.818 102.432C134.201 102.181 134.637 101.991 135.125 101.864C135.617 101.736 136.133 101.646 136.673 101.594C137.307 101.527 137.819 101.466 138.207 101.409C138.595 101.348 138.877 101.258 139.052 101.139C139.227 101.021 139.315 100.846 139.315 100.614V100.571C139.315 100.121 139.173 99.7732 138.889 99.527C138.609 99.2808 138.212 99.1577 137.696 99.1577C137.151 99.1577 136.718 99.2784 136.396 99.5199C136.074 99.7566 135.861 100.055 135.757 100.415L132.958 100.188C133.1 99.5246 133.38 98.9517 133.797 98.4688C134.213 97.9811 134.751 97.607 135.409 97.3466C136.072 97.0814 136.839 96.9489 137.71 96.9489C138.316 96.9489 138.896 97.0199 139.45 97.1619C140.009 97.304 140.503 97.5241 140.934 97.8224C141.37 98.1207 141.713 98.5043 141.964 98.973C142.215 99.437 142.341 99.9934 142.341 100.642V108H139.471V106.487H139.386C139.211 106.828 138.976 107.129 138.683 107.389C138.389 107.645 138.037 107.846 137.625 107.993C137.213 108.135 136.737 108.206 136.197 108.206ZM137.064 106.118C137.509 106.118 137.902 106.03 138.243 105.855C138.583 105.675 138.851 105.434 139.045 105.131C139.239 104.828 139.336 104.484 139.336 104.101V102.943C139.242 103.005 139.111 103.062 138.946 103.114C138.785 103.161 138.602 103.206 138.399 103.249C138.195 103.286 137.992 103.322 137.788 103.355C137.584 103.384 137.4 103.41 137.234 103.433C136.879 103.485 136.569 103.568 136.304 103.682C136.038 103.795 135.833 103.949 135.686 104.143C135.539 104.333 135.466 104.57 135.466 104.854C135.466 105.266 135.615 105.58 135.913 105.798C136.216 106.011 136.6 106.118 137.064 106.118ZM144.688 108V97.0909H147.621V98.9943H147.735C147.934 98.3172 148.267 97.8059 148.736 97.4602C149.205 97.1098 149.745 96.9347 150.355 96.9347C150.507 96.9347 150.67 96.9441 150.846 96.9631C151.021 96.982 151.175 97.008 151.307 97.0412V99.7259C151.165 99.6832 150.969 99.6454 150.718 99.6122C150.467 99.5791 150.237 99.5625 150.029 99.5625C149.584 99.5625 149.186 99.6596 148.836 99.8537C148.49 100.043 148.215 100.308 148.012 100.649C147.813 100.99 147.713 101.383 147.713 101.828V108H144.688ZM159.221 97.0909V99.3636H152.651V97.0909H159.221ZM154.143 94.4773H157.168V104.648C157.168 104.927 157.211 105.145 157.296 105.301C157.381 105.453 157.5 105.559 157.651 105.621C157.808 105.682 157.987 105.713 158.191 105.713C158.333 105.713 158.475 105.701 158.617 105.678C158.759 105.649 158.868 105.628 158.944 105.614L159.42 107.865C159.268 107.912 159.055 107.967 158.781 108.028C158.506 108.095 158.172 108.135 157.779 108.149C157.05 108.178 156.411 108.08 155.862 107.858C155.317 107.635 154.893 107.29 154.59 106.821C154.287 106.352 154.138 105.76 154.143 105.045V94.4773ZM165.821 112.091V97.0909H168.804V98.9233H168.939C169.071 98.6297 169.263 98.3314 169.514 98.0284C169.77 97.7206 170.101 97.465 170.508 97.2614C170.92 97.053 171.431 96.9489 172.042 96.9489C172.838 96.9489 173.572 97.1572 174.244 97.5739C174.916 97.9858 175.454 98.6084 175.856 99.4418C176.259 100.27 176.46 101.31 176.46 102.56C176.46 103.777 176.263 104.804 175.87 105.642C175.482 106.475 174.952 107.107 174.279 107.538C173.612 107.964 172.864 108.178 172.035 108.178C171.448 108.178 170.949 108.08 170.537 107.886C170.129 107.692 169.796 107.448 169.535 107.155C169.275 106.857 169.076 106.556 168.939 106.253H168.846V112.091H165.821ZM168.782 102.545C168.782 103.194 168.872 103.76 169.052 104.243C169.232 104.726 169.493 105.102 169.833 105.372C170.174 105.637 170.589 105.77 171.076 105.77C171.569 105.77 171.985 105.635 172.326 105.365C172.667 105.09 172.925 104.712 173.1 104.229C173.28 103.741 173.37 103.18 173.37 102.545C173.37 101.916 173.283 101.362 173.108 100.884C172.932 100.405 172.674 100.031 172.333 99.7614C171.993 99.4915 171.574 99.3565 171.076 99.3565C170.584 99.3565 170.167 99.4867 169.826 99.7472C169.49 100.008 169.232 100.377 169.052 100.855C168.872 101.333 168.782 101.897 168.782 102.545ZM181.588 108.206C180.892 108.206 180.271 108.085 179.727 107.844C179.182 107.598 178.752 107.235 178.434 106.757C178.122 106.274 177.966 105.673 177.966 104.953C177.966 104.347 178.077 103.838 178.299 103.426C178.522 103.014 178.825 102.683 179.208 102.432C179.592 102.181 180.028 101.991 180.515 101.864C181.008 101.736 181.524 101.646 182.064 101.594C182.698 101.527 183.209 101.466 183.598 101.409C183.986 101.348 184.268 101.258 184.443 101.139C184.618 101.021 184.706 100.846 184.706 100.614V100.571C184.706 100.121 184.564 99.7732 184.279 99.527C184 99.2808 183.602 99.1577 183.086 99.1577C182.542 99.1577 182.109 99.2784 181.787 99.5199C181.465 99.7566 181.252 100.055 181.147 100.415L178.349 100.188C178.491 99.5246 178.77 98.9517 179.187 98.4688C179.604 97.9811 180.141 97.607 180.799 97.3466C181.462 97.0814 182.229 96.9489 183.1 96.9489C183.707 96.9489 184.287 97.0199 184.841 97.1619C185.399 97.304 185.894 97.5241 186.325 97.8224C186.761 98.1207 187.104 98.5043 187.355 98.973C187.606 99.437 187.731 99.9934 187.731 100.642V108H184.862V106.487H184.777C184.601 106.828 184.367 107.129 184.074 107.389C183.78 107.645 183.427 107.846 183.015 107.993C182.603 108.135 182.127 108.206 181.588 108.206ZM182.454 106.118C182.899 106.118 183.292 106.03 183.633 105.855C183.974 105.675 184.242 105.434 184.436 105.131C184.63 104.828 184.727 104.484 184.727 104.101V102.943C184.632 103.005 184.502 103.062 184.336 103.114C184.175 103.161 183.993 103.206 183.789 103.249C183.586 103.286 183.382 103.322 183.179 103.355C182.975 103.384 182.79 103.41 182.625 103.433C182.27 103.485 181.959 103.568 181.694 103.682C181.429 103.795 181.223 103.949 181.076 104.143C180.93 104.333 180.856 104.57 180.856 104.854C180.856 105.266 181.005 105.58 181.304 105.798C181.607 106.011 181.99 106.118 182.454 106.118ZM194.993 112.318C194.013 112.318 193.173 112.183 192.472 111.913C191.776 111.648 191.222 111.286 190.81 110.827C190.398 110.367 190.131 109.851 190.007 109.278L192.806 108.902C192.891 109.12 193.026 109.323 193.211 109.513C193.395 109.702 193.639 109.854 193.942 109.967C194.25 110.086 194.624 110.145 195.064 110.145C195.722 110.145 196.265 109.984 196.691 109.662C197.122 109.345 197.337 108.812 197.337 108.064V106.068H197.209C197.077 106.371 196.878 106.658 196.613 106.928C196.347 107.197 196.007 107.418 195.59 107.588C195.173 107.759 194.676 107.844 194.098 107.844C193.279 107.844 192.533 107.654 191.861 107.276C191.194 106.892 190.661 106.307 190.263 105.521C189.87 104.731 189.674 103.732 189.674 102.524C189.674 101.288 189.875 100.256 190.277 99.4276C190.68 98.599 191.215 97.9787 191.882 97.5668C192.555 97.1548 193.291 96.9489 194.091 96.9489C194.702 96.9489 195.213 97.053 195.625 97.2614C196.037 97.465 196.369 97.7206 196.62 98.0284C196.875 98.3314 197.072 98.6297 197.209 98.9233H197.323V97.0909H200.327V108.107C200.327 109.035 200.1 109.811 199.645 110.436C199.191 111.061 198.561 111.53 197.756 111.842C196.956 112.16 196.035 112.318 194.993 112.318ZM195.057 105.571C195.545 105.571 195.957 105.45 196.293 105.209C196.634 104.963 196.894 104.612 197.074 104.158C197.259 103.698 197.351 103.149 197.351 102.51C197.351 101.871 197.261 101.317 197.081 100.848C196.901 100.375 196.641 100.008 196.3 99.7472C195.959 99.4867 195.545 99.3565 195.057 99.3565C194.56 99.3565 194.141 99.4915 193.8 99.7614C193.459 100.027 193.201 100.396 193.026 100.869C192.851 101.343 192.763 101.89 192.763 102.51C192.763 103.14 192.851 103.684 193.026 104.143C193.206 104.598 193.464 104.951 193.8 105.202C194.141 105.448 194.56 105.571 195.057 105.571ZM207.706 108.213C206.584 108.213 205.618 107.986 204.809 107.531C204.004 107.072 203.383 106.423 202.948 105.585C202.512 104.742 202.294 103.746 202.294 102.595C202.294 101.473 202.512 100.488 202.948 99.6406C203.383 98.7931 203.997 98.1326 204.787 97.6591C205.583 97.1856 206.516 96.9489 207.586 96.9489C208.305 96.9489 208.975 97.0649 209.596 97.2969C210.221 97.5241 210.765 97.8674 211.229 98.3267C211.698 98.786 212.062 99.3636 212.323 100.06C212.583 100.751 212.713 101.561 212.713 102.489V103.32H203.502V101.445H209.865C209.865 101.009 209.771 100.623 209.581 100.287C209.392 99.9508 209.129 99.688 208.793 99.4986C208.462 99.3045 208.076 99.2074 207.635 99.2074C207.176 99.2074 206.769 99.3139 206.414 99.527C206.063 99.7353 205.789 100.017 205.59 100.372C205.391 100.723 205.289 101.113 205.284 101.544V103.327C205.284 103.866 205.384 104.333 205.583 104.726C205.786 105.119 206.073 105.422 206.442 105.635C206.811 105.848 207.249 105.955 207.756 105.955C208.092 105.955 208.4 105.907 208.679 105.812C208.959 105.718 209.198 105.576 209.397 105.386C209.596 105.197 209.747 104.965 209.851 104.69L212.65 104.875C212.507 105.547 212.216 106.134 211.776 106.636C211.34 107.134 210.777 107.522 210.086 107.801C209.399 108.076 208.606 108.213 207.706 108.213Z" fill="black"/>
<rect x="816" y="378" width="348" height="73" fill="white" stroke="black" stroke-width="2"/>
<path d="M869.023 422L871.438 407.455H879.875L879.676 408.648H872.567L871.658 414.124H878.32L878.121 415.317H871.459L870.55 420.807H877.801L877.602 422H869.023ZM883.028 415.182L881.899 422H880.635L882.453 411.091H883.682L883.398 412.803H883.511C883.852 412.244 884.323 411.796 884.925 411.46C885.531 411.119 886.234 410.949 887.034 410.949C887.763 410.949 888.379 411.103 888.881 411.411C889.387 411.714 889.747 412.161 889.96 412.753C890.178 413.345 890.216 414.071 890.074 414.933L888.888 422H887.624L888.788 415.011C888.935 414.121 888.805 413.416 888.398 412.895C887.995 412.369 887.373 412.107 886.53 412.107C885.957 412.107 885.424 412.23 884.932 412.476C884.444 412.722 884.032 413.077 883.696 413.541C883.36 414 883.137 414.547 883.028 415.182ZM898.332 411.091L898.154 412.192H892.941L893.126 411.091H898.332ZM895.179 408.477H896.45L894.674 419.152C894.599 419.607 894.618 419.964 894.731 420.224C894.845 420.48 895.02 420.662 895.257 420.771C895.493 420.875 895.754 420.928 896.038 420.928C896.204 420.928 896.346 420.918 896.464 420.899C896.587 420.875 896.696 420.852 896.791 420.828L896.883 421.972C896.746 422.019 896.583 422.062 896.393 422.099C896.204 422.142 895.976 422.163 895.711 422.163C895.247 422.163 894.819 422.062 894.426 421.858C894.033 421.654 893.734 421.351 893.531 420.949C893.327 420.546 893.273 420.047 893.368 419.45L895.179 408.477ZM903.65 422.227C902.632 422.227 901.791 421.991 901.129 421.517C900.466 421.039 900.002 420.378 899.737 419.536C899.471 418.688 899.431 417.713 899.616 416.609C899.8 415.511 900.165 414.536 900.71 413.683C901.254 412.826 901.926 412.156 902.727 411.673C903.527 411.186 904.396 410.942 905.333 410.942C905.925 410.942 906.479 411.051 906.995 411.268C907.511 411.482 907.949 411.811 908.309 412.256C908.674 412.696 908.927 413.252 909.069 413.925C909.211 414.592 909.206 415.383 909.055 416.297L908.955 416.922H900.433L900.61 415.807H907.847C907.966 415.106 907.933 414.476 907.748 413.918C907.563 413.359 907.248 412.916 906.803 412.589C906.363 412.258 905.816 412.092 905.163 412.092C904.495 412.092 903.863 412.279 903.266 412.653C902.674 413.027 902.173 413.515 901.761 414.116C901.353 414.713 901.091 415.35 900.972 416.027L900.83 416.865C900.679 417.788 900.698 418.562 900.887 419.188C901.076 419.808 901.42 420.277 901.917 420.594C902.414 420.911 903.051 421.07 903.827 421.07C904.348 421.07 904.819 420.989 905.241 420.828C905.662 420.667 906.029 420.452 906.342 420.182C906.654 419.907 906.905 419.607 907.094 419.28L908.224 419.67C907.982 420.13 907.641 420.554 907.201 420.942C906.765 421.33 906.247 421.643 905.646 421.879C905.049 422.111 904.384 422.227 903.65 422.227ZM910.889 422L912.707 411.091H913.936L913.652 412.767H913.744C914.047 412.218 914.499 411.775 915.1 411.439C915.707 411.098 916.353 410.928 917.039 410.928C917.144 410.928 917.26 410.93 917.387 410.935C917.515 410.935 917.622 410.939 917.707 410.949L917.487 412.234C917.43 412.225 917.331 412.211 917.189 412.192C917.051 412.173 916.897 412.163 916.727 412.163C916.159 412.163 915.633 412.284 915.15 412.526C914.672 412.762 914.27 413.091 913.943 413.513C913.621 413.934 913.413 414.415 913.318 414.955L912.153 422H910.889ZM922.98 426.091L925.495 411.091H926.723L926.382 413.172H926.532C926.73 412.845 926.989 412.509 927.306 412.163C927.628 411.818 928.028 411.529 928.506 411.297C928.989 411.06 929.567 410.942 930.239 410.942C931.139 410.942 931.884 411.176 932.476 411.645C933.073 412.114 933.489 412.772 933.726 413.619C933.968 414.467 933.994 415.452 933.804 416.574C933.62 417.701 933.267 418.688 932.746 419.536C932.225 420.383 931.588 421.044 930.836 421.517C930.087 421.991 929.268 422.227 928.378 422.227C927.72 422.227 927.187 422.109 926.78 421.872C926.378 421.635 926.07 421.344 925.857 420.999C925.644 420.648 925.49 420.307 925.395 419.976H925.282L924.259 426.091H922.98ZM925.836 416.553C925.694 417.433 925.694 418.214 925.836 418.896C925.978 419.573 926.264 420.106 926.695 420.494C927.126 420.878 927.694 421.07 928.4 421.07C929.124 421.07 929.77 420.871 930.338 420.473C930.907 420.071 931.38 419.528 931.759 418.847C932.138 418.165 932.398 417.4 932.54 416.553C932.673 415.714 932.668 414.959 932.526 414.287C932.384 413.615 932.1 413.082 931.674 412.689C931.248 412.291 930.667 412.092 929.934 412.092C929.223 412.092 928.584 412.284 928.016 412.668C927.453 413.046 926.984 413.572 926.61 414.244C926.236 414.912 925.978 415.681 925.836 416.553ZM938.692 422.249C938.034 422.249 937.454 422.121 936.952 421.865C936.451 421.605 936.076 421.231 935.83 420.743C935.589 420.25 935.522 419.654 935.631 418.953C935.726 418.413 935.906 417.959 936.171 417.589C936.441 417.22 936.782 416.917 937.194 416.68C937.606 416.439 938.079 416.25 938.614 416.112C939.149 415.975 939.732 415.871 940.362 415.8C940.977 415.724 941.503 415.658 941.938 415.601C942.374 415.544 942.712 415.454 942.954 415.331C943.195 415.208 943.34 415.009 943.387 414.734L943.43 414.479C943.553 413.735 943.439 413.151 943.089 412.724C942.738 412.294 942.151 412.078 941.327 412.078C940.541 412.078 939.86 412.253 939.282 412.604C938.709 412.949 938.283 413.354 938.004 413.818L936.881 413.385C937.222 412.788 937.641 412.312 938.138 411.957C938.636 411.598 939.168 411.339 939.737 411.183C940.305 411.022 940.866 410.942 941.42 410.942C941.836 410.942 942.26 410.996 942.691 411.105C943.122 411.214 943.508 411.403 943.849 411.673C944.194 411.938 944.448 412.31 944.609 412.788C944.774 413.262 944.798 413.863 944.68 414.592L943.444 422H942.18L942.471 420.274H942.393C942.194 420.596 941.919 420.909 941.569 421.212C941.223 421.515 940.809 421.763 940.326 421.957C939.843 422.152 939.299 422.249 938.692 422.249ZM939.012 421.091C939.684 421.091 940.293 420.942 940.837 420.643C941.387 420.345 941.836 419.95 942.187 419.457C942.542 418.96 942.769 418.413 942.869 417.817L943.131 416.24C943.027 416.33 942.857 416.411 942.62 416.482C942.388 416.553 942.125 416.616 941.832 416.673C941.543 416.725 941.252 416.77 940.958 416.808C940.669 416.846 940.414 416.879 940.191 416.908C939.561 416.983 939.012 417.102 938.543 417.263C938.079 417.424 937.708 417.646 937.428 417.93C937.149 418.21 936.974 418.57 936.903 419.01C936.794 419.673 936.938 420.187 937.336 420.551C937.738 420.911 938.297 421.091 939.012 421.091ZM955.557 413.484L954.342 413.797C954.281 413.47 954.167 413.177 954.001 412.916C953.84 412.651 953.606 412.443 953.298 412.291C952.995 412.135 952.598 412.057 952.105 412.057C951.366 412.057 950.73 412.237 950.195 412.597C949.66 412.952 949.347 413.406 949.257 413.96C949.181 414.424 949.278 414.801 949.548 415.089C949.823 415.378 950.282 415.606 950.926 415.771L952.517 416.176C953.398 416.403 954.025 416.759 954.399 417.241C954.778 417.724 954.908 418.335 954.79 419.074C954.686 419.689 954.423 420.234 954.001 420.707C953.585 421.181 953.05 421.553 952.396 421.822C951.748 422.092 951.023 422.227 950.223 422.227C949.148 422.227 948.303 421.986 947.688 421.503C947.077 421.02 946.75 420.324 946.707 419.415L947.979 419.131C948.017 419.775 948.237 420.262 948.639 420.594C949.046 420.925 949.619 421.091 950.358 421.091C951.201 421.091 951.909 420.899 952.482 420.516C953.054 420.132 953.384 419.659 953.469 419.095C953.549 418.65 953.466 418.281 953.22 417.987C952.979 417.694 952.567 417.476 951.984 417.334L950.287 416.908C949.373 416.676 948.727 416.313 948.348 415.821C947.974 415.324 947.848 414.711 947.972 413.982C948.071 413.38 948.322 412.852 948.724 412.398C949.127 411.943 949.636 411.588 950.251 411.332C950.867 411.072 951.539 410.942 952.268 410.942C953.272 410.942 954.037 411.169 954.562 411.624C955.088 412.073 955.42 412.694 955.557 413.484ZM965.811 413.484L964.596 413.797C964.535 413.47 964.421 413.177 964.255 412.916C964.094 412.651 963.86 412.443 963.552 412.291C963.249 412.135 962.851 412.057 962.359 412.057C961.62 412.057 960.984 412.237 960.449 412.597C959.913 412.952 959.601 413.406 959.511 413.96C959.435 414.424 959.532 414.801 959.802 415.089C960.077 415.378 960.536 415.606 961.18 415.771L962.771 416.176C963.652 416.403 964.279 416.759 964.653 417.241C965.032 417.724 965.162 418.335 965.044 419.074C964.94 419.689 964.677 420.234 964.255 420.707C963.839 421.181 963.304 421.553 962.65 421.822C962.002 422.092 961.277 422.227 960.477 422.227C959.402 422.227 958.557 421.986 957.941 421.503C957.331 421.02 957.004 420.324 956.961 419.415L958.233 419.131C958.27 419.775 958.491 420.262 958.893 420.594C959.3 420.925 959.873 421.091 960.612 421.091C961.455 421.091 962.163 420.899 962.735 420.516C963.308 420.132 963.637 419.659 963.723 419.095C963.803 418.65 963.72 418.281 963.474 417.987C963.233 417.694 962.821 417.476 962.238 417.334L960.541 416.908C959.627 416.676 958.981 416.313 958.602 415.821C958.228 415.324 958.102 414.711 958.225 413.982C958.325 413.38 958.576 412.852 958.978 412.398C959.381 411.943 959.89 411.588 960.505 411.332C961.121 411.072 961.793 410.942 962.522 410.942C963.526 410.942 964.291 411.169 964.816 411.624C965.342 412.073 965.673 412.694 965.811 413.484ZM969.737 422L968.259 411.091H969.587L970.674 420.089H970.766L974.843 411.091H976.185L977.244 420.068H977.343L981.42 411.091H982.769L977.656 422H976.349L975.241 413.072H975.106L971.043 422H969.737ZM987.327 422.227C986.371 422.227 985.566 421.986 984.912 421.503C984.259 421.015 983.797 420.34 983.527 419.479C983.257 418.617 983.212 417.623 983.392 416.496C983.572 415.397 983.93 414.431 984.465 413.598C985.005 412.76 985.667 412.109 986.453 411.645C987.239 411.176 988.094 410.942 989.017 410.942C989.979 410.942 990.783 411.186 991.432 411.673C992.086 412.161 992.547 412.836 992.817 413.697C993.092 414.559 993.139 415.556 992.959 416.688C992.779 417.781 992.419 418.745 991.88 419.578C991.34 420.407 990.677 421.055 989.891 421.524C989.11 421.993 988.255 422.227 987.327 422.227ZM987.341 421.07C988.118 421.07 988.809 420.864 989.415 420.452C990.026 420.035 990.53 419.481 990.928 418.79C991.326 418.094 991.593 417.329 991.73 416.496C991.858 415.7 991.844 414.969 991.688 414.301C991.532 413.634 991.231 413.098 990.786 412.696C990.341 412.294 989.749 412.092 989.01 412.092C988.239 412.092 987.547 412.303 986.936 412.724C986.326 413.141 985.821 413.7 985.424 414.401C985.026 415.097 984.761 415.859 984.628 416.688C984.496 417.488 984.505 418.219 984.657 418.882C984.813 419.545 985.114 420.075 985.559 420.473C986.008 420.871 986.603 421.07 987.341 421.07ZM994.854 422L996.672 411.091H997.901L997.616 412.767H997.709C998.012 412.218 998.464 411.775 999.065 411.439C999.671 411.098 1000.32 410.928 1001 410.928C1001.11 410.928 1001.22 410.93 1001.35 410.935C1001.48 410.935 1001.59 410.939 1001.67 410.949L1001.45 412.234C1001.39 412.225 1001.3 412.211 1001.15 412.192C1001.02 412.173 1000.86 412.163 1000.69 412.163C1000.12 412.163 999.598 412.284 999.115 412.526C998.637 412.762 998.234 413.091 997.908 413.513C997.586 413.934 997.377 414.415 997.283 414.955L996.118 422H994.854ZM1005.58 422.227C1004.68 422.227 1003.94 421.991 1003.34 421.517C1002.74 421.044 1002.33 420.383 1002.09 419.536C1001.85 418.688 1001.83 417.701 1002.01 416.574C1002.2 415.452 1002.55 414.469 1003.07 413.626C1003.59 412.779 1004.23 412.121 1004.98 411.652C1005.74 411.179 1006.56 410.942 1007.46 410.942C1008.13 410.942 1008.66 411.06 1009.06 411.297C1009.46 411.529 1009.76 411.818 1009.97 412.163C1010.18 412.509 1010.33 412.845 1010.42 413.172H1010.53L1011.49 407.455H1012.76L1010.34 422H1009.11L1009.45 419.976H1009.3C1009.09 420.307 1008.83 420.648 1008.5 420.999C1008.17 421.344 1007.77 421.635 1007.29 421.872C1006.81 422.109 1006.24 422.227 1005.58 422.227ZM1005.85 421.07C1006.56 421.07 1007.2 420.878 1007.76 420.494C1008.34 420.106 1008.81 419.573 1009.2 418.896C1009.59 418.214 1009.85 417.433 1009.99 416.553C1010.14 415.681 1010.14 414.912 1009.99 414.244C1009.84 413.572 1009.54 413.046 1009.11 412.668C1008.67 412.284 1008.1 412.092 1007.38 412.092C1006.66 412.092 1006.01 412.291 1005.45 412.689C1004.89 413.082 1004.42 413.615 1004.05 414.287C1003.68 414.959 1003.43 415.714 1003.29 416.553C1003.15 417.4 1003.15 418.165 1003.29 418.847C1003.43 419.528 1003.71 420.071 1004.13 420.473C1004.55 420.871 1005.13 421.07 1005.85 421.07Z" fill="black"/>
<rect x="816" y="243" width="348" height="73" fill="white" stroke="black" stroke-width="2"/>
<path d="M869.023 287L871.438 272.455H879.875L879.676 273.648H872.567L871.658 279.124H878.32L878.121 280.317H871.459L870.55 285.807H877.801L877.602 287H869.023ZM883.028 280.182L881.899 287H880.635L882.453 276.091H883.682L883.398 277.803H883.511C883.852 277.244 884.323 276.796 884.925 276.46C885.531 276.119 886.234 275.949 887.034 275.949C887.763 275.949 888.379 276.103 888.881 276.411C889.387 276.714 889.747 277.161 889.96 277.753C890.178 278.345 890.216 279.071 890.074 279.933L888.888 287H887.624L888.788 280.011C888.935 279.121 888.805 278.416 888.398 277.895C887.995 277.369 887.373 277.107 886.53 277.107C885.957 277.107 885.424 277.23 884.932 277.476C884.444 277.722 884.032 278.077 883.696 278.541C883.36 279 883.137 279.547 883.028 280.182ZM898.332 276.091L898.154 277.192H892.941L893.126 276.091H898.332ZM895.179 273.477H896.45L894.674 284.152C894.599 284.607 894.618 284.964 894.731 285.224C894.845 285.48 895.02 285.662 895.257 285.771C895.493 285.875 895.754 285.928 896.038 285.928C896.204 285.928 896.346 285.918 896.464 285.899C896.587 285.875 896.696 285.852 896.791 285.828L896.883 286.972C896.746 287.019 896.583 287.062 896.393 287.099C896.204 287.142 895.976 287.163 895.711 287.163C895.247 287.163 894.819 287.062 894.426 286.858C894.033 286.654 893.734 286.351 893.531 285.949C893.327 285.546 893.273 285.047 893.368 284.45L895.179 273.477ZM903.65 287.227C902.632 287.227 901.791 286.991 901.129 286.517C900.466 286.039 900.002 285.378 899.737 284.536C899.471 283.688 899.431 282.713 899.616 281.609C899.8 280.511 900.165 279.536 900.71 278.683C901.254 277.826 901.926 277.156 902.727 276.673C903.527 276.186 904.396 275.942 905.333 275.942C905.925 275.942 906.479 276.051 906.995 276.268C907.511 276.482 907.949 276.811 908.309 277.256C908.674 277.696 908.927 278.252 909.069 278.925C909.211 279.592 909.206 280.383 909.055 281.297L908.955 281.922H900.433L900.61 280.807H907.847C907.966 280.106 907.933 279.476 907.748 278.918C907.563 278.359 907.248 277.916 906.803 277.589C906.363 277.258 905.816 277.092 905.163 277.092C904.495 277.092 903.863 277.279 903.266 277.653C902.674 278.027 902.173 278.515 901.761 279.116C901.353 279.713 901.091 280.35 900.972 281.027L900.83 281.865C900.679 282.788 900.698 283.562 900.887 284.188C901.076 284.808 901.42 285.277 901.917 285.594C902.414 285.911 903.051 286.07 903.827 286.07C904.348 286.07 904.819 285.989 905.241 285.828C905.662 285.667 906.029 285.452 906.342 285.182C906.654 284.907 906.905 284.607 907.094 284.28L908.224 284.67C907.982 285.13 907.641 285.554 907.201 285.942C906.765 286.33 906.247 286.643 905.646 286.879C905.049 287.111 904.384 287.227 903.65 287.227ZM910.889 287L912.707 276.091H913.936L913.652 277.767H913.744C914.047 277.218 914.499 276.775 915.1 276.439C915.707 276.098 916.353 275.928 917.039 275.928C917.144 275.928 917.26 275.93 917.387 275.935C917.515 275.935 917.622 275.939 917.707 275.949L917.487 277.234C917.43 277.225 917.331 277.211 917.189 277.192C917.051 277.173 916.897 277.163 916.727 277.163C916.159 277.163 915.633 277.284 915.15 277.526C914.672 277.762 914.27 278.091 913.943 278.513C913.621 278.934 913.413 279.415 913.318 279.955L912.153 287H910.889ZM928.044 287.227C927.026 287.227 926.186 286.991 925.523 286.517C924.86 286.039 924.396 285.378 924.131 284.536C923.866 283.688 923.826 282.713 924.01 281.609C924.195 280.511 924.56 279.536 925.104 278.683C925.649 277.826 926.321 277.156 927.121 276.673C927.921 276.186 928.79 275.942 929.728 275.942C930.319 275.942 930.873 276.051 931.39 276.268C931.906 276.482 932.344 276.811 932.703 277.256C933.068 277.696 933.321 278.252 933.463 278.925C933.605 279.592 933.601 280.383 933.449 281.297L933.35 281.922H924.827L925.005 280.807H932.242C932.36 280.106 932.327 279.476 932.142 278.918C931.958 278.359 931.643 277.916 931.198 277.589C930.757 277.258 930.211 277.092 929.557 277.092C928.89 277.092 928.257 277.279 927.661 277.653C927.069 278.027 926.567 278.515 926.155 279.116C925.748 279.713 925.485 280.35 925.367 281.027L925.225 281.865C925.073 282.788 925.092 283.562 925.282 284.188C925.471 284.808 925.814 285.277 926.311 285.594C926.809 285.911 927.445 286.07 928.222 286.07C928.743 286.07 929.214 285.989 929.635 285.828C930.057 285.667 930.424 285.452 930.736 285.182C931.049 284.907 931.3 284.607 931.489 284.28L932.618 284.67C932.377 285.13 932.036 285.554 931.596 285.942C931.16 286.33 930.641 286.643 930.04 286.879C929.444 287.111 928.778 287.227 928.044 287.227ZM935.283 287L937.102 276.091H938.33L938.046 277.767H938.16C938.477 277.204 938.917 276.761 939.481 276.439C940.044 276.112 940.683 275.949 941.398 275.949C942.147 275.949 942.734 276.126 943.16 276.482C943.586 276.832 943.87 277.315 944.012 277.93H944.104C944.445 277.324 944.926 276.844 945.546 276.489C946.166 276.129 946.874 275.949 947.67 275.949C948.678 275.949 949.424 276.268 949.907 276.908C950.39 277.547 950.53 278.475 950.326 279.692L949.104 287H947.84L949.062 279.692C949.199 278.83 949.088 278.184 948.728 277.753C948.368 277.322 947.828 277.107 947.109 277.107C946.275 277.107 945.586 277.362 945.042 277.874C944.502 278.38 944.168 279.029 944.04 279.82L942.84 287H941.548L942.79 279.578C942.909 278.839 942.802 278.243 942.471 277.788C942.144 277.334 941.607 277.107 940.859 277.107C940.352 277.107 939.876 277.232 939.431 277.483C938.991 277.729 938.617 278.072 938.309 278.513C938.006 278.948 937.807 279.448 937.712 280.011L936.548 287H935.283ZM955.47 287.249C954.812 287.249 954.232 287.121 953.73 286.865C953.228 286.605 952.854 286.231 952.608 285.743C952.366 285.25 952.3 284.654 952.409 283.953C952.503 283.413 952.683 282.959 952.949 282.589C953.218 282.22 953.559 281.917 953.971 281.68C954.383 281.439 954.857 281.25 955.392 281.112C955.927 280.975 956.509 280.871 957.139 280.8C957.754 280.724 958.28 280.658 958.716 280.601C959.151 280.544 959.49 280.454 959.731 280.331C959.973 280.208 960.117 280.009 960.164 279.734L960.207 279.479C960.33 278.735 960.217 278.151 959.866 277.724C959.516 277.294 958.929 277.078 958.105 277.078C957.319 277.078 956.637 277.253 956.059 277.604C955.486 277.949 955.06 278.354 954.781 278.818L953.659 278.385C954 277.788 954.419 277.312 954.916 276.957C955.413 276.598 955.946 276.339 956.514 276.183C957.082 276.022 957.643 275.942 958.197 275.942C958.614 275.942 959.038 275.996 959.468 276.105C959.899 276.214 960.285 276.403 960.626 276.673C960.972 276.938 961.225 277.31 961.386 277.788C961.552 278.262 961.575 278.863 961.457 279.592L960.221 287H958.957L959.248 285.274H959.17C958.971 285.596 958.697 285.909 958.346 286.212C958.001 286.515 957.586 286.763 957.103 286.957C956.62 287.152 956.076 287.249 955.47 287.249ZM955.789 286.091C956.462 286.091 957.07 285.942 957.615 285.643C958.164 285.345 958.614 284.95 958.964 284.457C959.319 283.96 959.547 283.413 959.646 282.817L959.909 281.24C959.805 281.33 959.634 281.411 959.397 281.482C959.165 281.553 958.903 281.616 958.609 281.673C958.32 281.725 958.029 281.77 957.735 281.808C957.447 281.846 957.191 281.879 956.968 281.908C956.339 281.983 955.789 282.102 955.321 282.263C954.857 282.424 954.485 282.646 954.206 282.93C953.926 283.21 953.751 283.57 953.68 284.01C953.571 284.673 953.716 285.187 954.113 285.551C954.516 285.911 955.074 286.091 955.789 286.091ZM963.598 287L965.417 276.091H966.688L964.87 287H963.598ZM966.51 274.195C966.245 274.195 966.02 274.105 965.836 273.925C965.656 273.745 965.568 273.527 965.573 273.271C965.582 273.03 965.679 272.821 965.864 272.646C966.053 272.466 966.276 272.376 966.532 272.376C966.797 272.376 967.022 272.469 967.206 272.653C967.391 272.833 967.479 273.051 967.469 273.307C967.464 273.548 967.367 273.757 967.178 273.932C966.989 274.107 966.766 274.195 966.51 274.195ZM971.892 272.455L969.477 287H968.213L970.628 272.455H971.892Z" fill="black"/>
<rect x="906" y="504" width="148" height="73" fill="#D9D9D9" stroke="black" stroke-width="2"/>
<path d="M953.264 548V533.455H956.339V545.464H962.575V548H953.264ZM969.484 548.213C968.381 548.213 967.427 547.979 966.622 547.51C965.822 547.036 965.204 546.378 964.768 545.536C964.333 544.688 964.115 543.705 964.115 542.588C964.115 541.461 964.333 540.476 964.768 539.634C965.204 538.786 965.822 538.128 966.622 537.659C967.427 537.186 968.381 536.949 969.484 536.949C970.587 536.949 971.539 537.186 972.339 537.659C973.144 538.128 973.764 538.786 974.2 539.634C974.636 540.476 974.853 541.461 974.853 542.588C974.853 543.705 974.636 544.688 974.2 545.536C973.764 546.378 973.144 547.036 972.339 547.51C971.539 547.979 970.587 548.213 969.484 548.213ZM969.498 545.869C970 545.869 970.419 545.727 970.755 545.443C971.092 545.154 971.345 544.761 971.515 544.264C971.69 543.767 971.778 543.201 971.778 542.567C971.778 541.932 971.69 541.366 971.515 540.869C971.345 540.372 971.092 539.979 970.755 539.69C970.419 539.402 970 539.257 969.498 539.257C968.992 539.257 968.565 539.402 968.22 539.69C967.879 539.979 967.621 540.372 967.446 540.869C967.275 541.366 967.19 541.932 967.19 542.567C967.19 543.201 967.275 543.767 967.446 544.264C967.621 544.761 967.879 545.154 968.22 545.443C968.565 545.727 968.992 545.869 969.498 545.869ZM981.735 552.318C980.755 552.318 979.915 552.183 979.214 551.913C978.518 551.648 977.964 551.286 977.552 550.827C977.14 550.367 976.873 549.851 976.75 549.278L979.548 548.902C979.633 549.12 979.768 549.323 979.953 549.513C980.137 549.702 980.381 549.854 980.684 549.967C980.992 550.086 981.366 550.145 981.806 550.145C982.465 550.145 983.007 549.984 983.433 549.662C983.864 549.345 984.079 548.812 984.079 548.064V546.068H983.951C983.819 546.371 983.62 546.658 983.355 546.928C983.09 547.197 982.749 547.418 982.332 547.588C981.915 547.759 981.418 547.844 980.841 547.844C980.021 547.844 979.276 547.654 978.603 547.276C977.936 546.892 977.403 546.307 977.005 545.521C976.612 544.731 976.416 543.732 976.416 542.524C976.416 541.288 976.617 540.256 977.02 539.428C977.422 538.599 977.957 537.979 978.625 537.567C979.297 537.155 980.033 536.949 980.833 536.949C981.444 536.949 981.956 537.053 982.368 537.261C982.779 537.465 983.111 537.721 983.362 538.028C983.618 538.331 983.814 538.63 983.951 538.923H984.065V537.091H987.069V548.107C987.069 549.035 986.842 549.811 986.387 550.436C985.933 551.061 985.303 551.53 984.498 551.842C983.698 552.16 982.777 552.318 981.735 552.318ZM981.799 545.571C982.287 545.571 982.699 545.45 983.035 545.209C983.376 544.963 983.636 544.612 983.816 544.158C984.001 543.698 984.093 543.149 984.093 542.51C984.093 541.871 984.003 541.317 983.824 540.848C983.644 540.375 983.383 540.008 983.042 539.747C982.701 539.487 982.287 539.357 981.799 539.357C981.302 539.357 980.883 539.491 980.542 539.761C980.201 540.027 979.943 540.396 979.768 540.869C979.593 541.343 979.505 541.89 979.505 542.51C979.505 543.14 979.593 543.684 979.768 544.143C979.948 544.598 980.206 544.951 980.542 545.202C980.883 545.448 981.302 545.571 981.799 545.571ZM989.477 548V537.091H992.502V548H989.477ZM990.997 535.685C990.547 535.685 990.161 535.536 989.839 535.237C989.522 534.934 989.363 534.572 989.363 534.151C989.363 533.734 989.522 533.376 989.839 533.078C990.161 532.775 990.547 532.624 990.997 532.624C991.447 532.624 991.83 532.775 992.147 533.078C992.469 533.376 992.63 533.734 992.63 534.151C992.63 534.572 992.469 534.934 992.147 535.237C991.83 535.536 991.447 535.685 990.997 535.685ZM997.952 541.693V548H994.926V537.091H997.81V539.016H997.938C998.179 538.381 998.584 537.879 999.152 537.51C999.72 537.136 1000.41 536.949 1001.22 536.949C1001.98 536.949 1002.64 537.115 1003.2 537.446C1003.76 537.777 1004.2 538.251 1004.51 538.866C1004.83 539.477 1004.98 540.206 1004.98 541.054V548H1001.96V541.594C1001.96 540.926 1001.79 540.405 1001.45 540.031C1001.1 539.652 1000.62 539.463 1000.02 539.463C999.611 539.463 999.251 539.551 998.939 539.726C998.631 539.901 998.39 540.157 998.214 540.493C998.044 540.824 997.956 541.224 997.952 541.693Z" fill="black"/>
</svg>
