<svg width="1980" height="1080" viewBox="0 0 1980 1080" fill="none" xmlns="http://www.w3.org/2000/svg">
<rect width="1980" height="1080" fill="#D9D9D9"/>
<rect x="136" y="205" width="348" height="73" fill="#D9D9D9" stroke="black" stroke-width="2"/>
<path d="M206.631 241.727C206.631 243.313 206.33 244.663 205.729 245.776C205.132 246.888 204.318 247.738 203.286 248.325C202.258 248.908 201.103 249.199 199.82 249.199C198.527 249.199 197.367 248.905 196.339 248.318C195.312 247.731 194.5 246.881 193.903 245.768C193.307 244.656 193.009 243.309 193.009 241.727C193.009 240.141 193.307 238.792 193.903 237.679C194.5 236.566 195.312 235.719 196.339 235.136C197.367 234.549 198.527 234.256 199.82 234.256C201.103 234.256 202.258 234.549 203.286 235.136C204.318 235.719 205.132 236.566 205.729 237.679C206.33 238.792 206.631 240.141 206.631 241.727ZM203.513 241.727C203.513 240.7 203.359 239.833 203.051 239.128C202.748 238.422 202.32 237.887 201.766 237.523C201.212 237.158 200.563 236.976 199.82 236.976C199.076 236.976 198.428 237.158 197.874 237.523C197.32 237.887 196.889 238.422 196.581 239.128C196.278 239.833 196.126 240.7 196.126 241.727C196.126 242.755 196.278 243.621 196.581 244.327C196.889 245.032 197.32 245.567 197.874 245.932C198.428 246.296 199.076 246.479 199.82 246.479C200.563 246.479 201.212 246.296 201.766 245.932C202.32 245.567 202.748 245.032 203.051 244.327C203.359 243.621 203.513 242.755 203.513 241.727ZM208.852 253.091V238.091H211.835V239.923H211.97C212.102 239.63 212.294 239.331 212.545 239.028C212.801 238.721 213.132 238.465 213.539 238.261C213.951 238.053 214.463 237.949 215.074 237.949C215.869 237.949 216.603 238.157 217.275 238.574C217.948 238.986 218.485 239.608 218.887 240.442C219.29 241.27 219.491 242.31 219.491 243.56C219.491 244.777 219.295 245.804 218.902 246.642C218.513 247.475 217.983 248.107 217.311 248.538C216.643 248.964 215.895 249.178 215.066 249.178C214.479 249.178 213.98 249.08 213.568 248.886C213.161 248.692 212.827 248.448 212.566 248.155C212.306 247.857 212.107 247.556 211.97 247.253H211.877V253.091H208.852ZM211.814 243.545C211.814 244.194 211.904 244.76 212.083 245.243C212.263 245.726 212.524 246.102 212.865 246.372C213.206 246.637 213.62 246.77 214.108 246.77C214.6 246.77 215.017 246.635 215.358 246.365C215.699 246.09 215.957 245.712 216.132 245.229C216.312 244.741 216.402 244.18 216.402 243.545C216.402 242.916 216.314 242.362 216.139 241.884C215.964 241.405 215.706 241.031 215.365 240.761C215.024 240.491 214.605 240.357 214.108 240.357C213.615 240.357 213.199 240.487 212.858 240.747C212.521 241.008 212.263 241.377 212.083 241.855C211.904 242.333 211.814 242.897 211.814 243.545ZM226.48 249.213C225.358 249.213 224.392 248.986 223.582 248.531C222.777 248.072 222.157 247.423 221.721 246.585C221.286 245.742 221.068 244.746 221.068 243.595C221.068 242.473 221.286 241.488 221.721 240.641C222.157 239.793 222.77 239.133 223.561 238.659C224.356 238.186 225.289 237.949 226.359 237.949C227.079 237.949 227.749 238.065 228.369 238.297C228.994 238.524 229.538 238.867 230.002 239.327C230.471 239.786 230.836 240.364 231.096 241.06C231.357 241.751 231.487 242.561 231.487 243.489V244.32H222.275V242.445H228.639C228.639 242.009 228.544 241.623 228.355 241.287C228.165 240.951 227.903 240.688 227.566 240.499C227.235 240.304 226.849 240.207 226.409 240.207C225.949 240.207 225.542 240.314 225.187 240.527C224.837 240.735 224.562 241.017 224.363 241.372C224.164 241.723 224.063 242.113 224.058 242.544V244.327C224.058 244.866 224.157 245.333 224.356 245.726C224.56 246.119 224.846 246.422 225.216 246.635C225.585 246.848 226.023 246.955 226.529 246.955C226.866 246.955 227.173 246.907 227.453 246.812C227.732 246.718 227.971 246.576 228.17 246.386C228.369 246.197 228.52 245.965 228.625 245.69L231.423 245.875C231.281 246.547 230.99 247.134 230.549 247.636C230.114 248.134 229.55 248.522 228.859 248.801C228.172 249.076 227.379 249.213 226.48 249.213ZM236.487 242.693V249H233.461V238.091H236.345V240.016H236.473C236.714 239.381 237.119 238.879 237.687 238.51C238.255 238.136 238.944 237.949 239.754 237.949C240.511 237.949 241.172 238.115 241.735 238.446C242.299 238.777 242.737 239.251 243.049 239.866C243.362 240.477 243.518 241.206 243.518 242.054V249H240.493V242.594C240.497 241.926 240.327 241.405 239.981 241.031C239.636 240.652 239.16 240.463 238.554 240.463C238.146 240.463 237.787 240.551 237.474 240.726C237.166 240.901 236.925 241.157 236.75 241.493C236.579 241.824 236.492 242.224 236.487 242.693ZM257.527 244.355V238.091H260.553V249H257.648V247.018H257.534C257.288 247.658 256.879 248.171 256.306 248.56C255.738 248.948 255.044 249.142 254.225 249.142C253.496 249.142 252.854 248.976 252.3 248.645C251.746 248.313 251.313 247.842 251 247.232C250.693 246.621 250.536 245.889 250.532 245.037V238.091H253.557V244.497C253.562 245.141 253.735 245.65 254.076 246.024C254.417 246.398 254.873 246.585 255.446 246.585C255.811 246.585 256.152 246.502 256.469 246.337C256.786 246.166 257.042 245.915 257.236 245.584C257.435 245.252 257.532 244.843 257.527 244.355ZM272.05 241.202L269.28 241.372C269.232 241.135 269.131 240.922 268.974 240.733C268.818 240.539 268.612 240.385 268.357 240.271C268.106 240.153 267.805 240.094 267.455 240.094C266.986 240.094 266.59 240.193 266.268 240.392C265.946 240.586 265.786 240.847 265.786 241.173C265.786 241.434 265.89 241.654 266.098 241.834C266.306 242.014 266.664 242.158 267.17 242.267L269.145 242.665C270.205 242.883 270.996 243.233 271.517 243.716C272.038 244.199 272.298 244.833 272.298 245.619C272.298 246.334 272.088 246.962 271.666 247.501C271.25 248.041 270.677 248.463 269.947 248.766C269.223 249.064 268.387 249.213 267.44 249.213C265.996 249.213 264.846 248.912 263.989 248.311C263.136 247.705 262.637 246.881 262.49 245.839L265.466 245.683C265.556 246.124 265.774 246.46 266.119 246.692C266.465 246.919 266.908 247.033 267.447 247.033C267.978 247.033 268.404 246.931 268.726 246.727C269.053 246.519 269.218 246.251 269.223 245.925C269.218 245.65 269.102 245.425 268.875 245.25C268.648 245.07 268.297 244.933 267.824 244.838L265.935 244.462C264.869 244.249 264.076 243.879 263.555 243.354C263.039 242.828 262.781 242.158 262.781 241.344C262.781 240.643 262.971 240.039 263.349 239.533C263.733 239.026 264.27 238.635 264.962 238.361C265.658 238.086 266.472 237.949 267.405 237.949C268.783 237.949 269.867 238.24 270.658 238.822C271.453 239.405 271.917 240.198 272.05 241.202ZM279.175 249.213C278.053 249.213 277.087 248.986 276.277 248.531C275.472 248.072 274.852 247.423 274.417 246.585C273.981 245.742 273.763 244.746 273.763 243.595C273.763 242.473 273.981 241.488 274.417 240.641C274.852 239.793 275.465 239.133 276.256 238.659C277.051 238.186 277.984 237.949 279.054 237.949C279.774 237.949 280.444 238.065 281.064 238.297C281.689 238.524 282.234 238.867 282.698 239.327C283.167 239.786 283.531 240.364 283.792 241.06C284.052 241.751 284.182 242.561 284.182 243.489V244.32H274.971V242.445H281.334C281.334 242.009 281.239 241.623 281.05 241.287C280.861 240.951 280.598 240.688 280.262 240.499C279.93 240.304 279.544 240.207 279.104 240.207C278.645 240.207 278.238 240.314 277.882 240.527C277.532 240.735 277.257 241.017 277.059 241.372C276.86 241.723 276.758 242.113 276.753 242.544V244.327C276.753 244.866 276.853 245.333 277.051 245.726C277.255 246.119 277.542 246.422 277.911 246.635C278.28 246.848 278.718 246.955 279.225 246.955C279.561 246.955 279.869 246.907 280.148 246.812C280.427 246.718 280.667 246.576 280.865 246.386C281.064 246.197 281.216 245.965 281.32 245.69L284.118 245.875C283.976 246.547 283.685 247.134 283.245 247.636C282.809 248.134 282.246 248.522 281.554 248.801C280.868 249.076 280.075 249.213 279.175 249.213ZM286.157 249V238.091H289.09V239.994H289.203C289.402 239.317 289.736 238.806 290.205 238.46C290.674 238.11 291.213 237.935 291.824 237.935C291.976 237.935 292.139 237.944 292.314 237.963C292.489 237.982 292.643 238.008 292.776 238.041V240.726C292.634 240.683 292.437 240.645 292.186 240.612C291.935 240.579 291.706 240.562 291.498 240.562C291.052 240.562 290.655 240.66 290.304 240.854C289.959 241.043 289.684 241.308 289.48 241.649C289.282 241.99 289.182 242.383 289.182 242.828V249H286.157ZM298.969 249V238.091H301.995V249H298.969ZM300.489 236.685C300.039 236.685 299.653 236.536 299.331 236.237C299.014 235.934 298.855 235.572 298.855 235.151C298.855 234.734 299.014 234.376 299.331 234.078C299.653 233.775 300.039 233.624 300.489 233.624C300.939 233.624 301.322 233.775 301.64 234.078C301.962 234.376 302.123 234.734 302.123 235.151C302.123 235.572 301.962 235.934 301.64 236.237C301.322 236.536 300.939 236.685 300.489 236.685ZM307.444 242.693V249H304.418V238.091H307.302V240.016H307.43C307.671 239.381 308.076 238.879 308.644 238.51C309.212 238.136 309.901 237.949 310.711 237.949C311.469 237.949 312.129 238.115 312.692 238.446C313.256 238.777 313.694 239.251 314.006 239.866C314.319 240.477 314.475 241.206 314.475 242.054V249H311.45V242.594C311.454 241.926 311.284 241.405 310.938 241.031C310.593 240.652 310.117 240.463 309.511 240.463C309.103 240.463 308.744 240.551 308.431 240.726C308.123 240.901 307.882 241.157 307.707 241.493C307.536 241.824 307.449 242.224 307.444 242.693ZM322.726 238.091V240.364H315.993V238.091H322.726ZM317.534 249V237.303C317.534 236.512 317.688 235.856 317.996 235.335C318.309 234.814 318.735 234.424 319.275 234.163C319.814 233.903 320.427 233.773 321.114 233.773C321.578 233.773 322.002 233.808 322.385 233.879C322.774 233.95 323.062 234.014 323.252 234.071L322.712 236.344C322.594 236.306 322.447 236.27 322.272 236.237C322.101 236.204 321.926 236.188 321.746 236.188C321.301 236.188 320.991 236.292 320.816 236.5C320.641 236.704 320.553 236.99 320.553 237.359V249H317.534ZM329.113 249.213C328.01 249.213 327.056 248.979 326.251 248.51C325.451 248.036 324.833 247.378 324.397 246.536C323.961 245.688 323.744 244.705 323.744 243.588C323.744 242.461 323.961 241.476 324.397 240.634C324.833 239.786 325.451 239.128 326.251 238.659C327.056 238.186 328.01 237.949 329.113 237.949C330.216 237.949 331.168 238.186 331.968 238.659C332.773 239.128 333.393 239.786 333.829 240.634C334.264 241.476 334.482 242.461 334.482 243.588C334.482 244.705 334.264 245.688 333.829 246.536C333.393 247.378 332.773 248.036 331.968 248.51C331.168 248.979 330.216 249.213 329.113 249.213ZM329.127 246.869C329.629 246.869 330.048 246.727 330.384 246.443C330.72 246.154 330.974 245.761 331.144 245.264C331.319 244.767 331.407 244.201 331.407 243.567C331.407 242.932 331.319 242.366 331.144 241.869C330.974 241.372 330.72 240.979 330.384 240.69C330.048 240.402 329.629 240.257 329.127 240.257C328.621 240.257 328.194 240.402 327.849 240.69C327.508 240.979 327.25 241.372 327.075 241.869C326.904 242.366 326.819 242.932 326.819 243.567C326.819 244.201 326.904 244.767 327.075 245.264C327.25 245.761 327.508 246.154 327.849 246.443C328.194 246.727 328.621 246.869 329.127 246.869ZM341.078 249V238.091H344.104V249H341.078ZM342.598 236.685C342.149 236.685 341.763 236.536 341.441 236.237C341.123 235.934 340.965 235.572 340.965 235.151C340.965 234.734 341.123 234.376 341.441 234.078C341.763 233.775 342.149 233.624 342.598 233.624C343.048 233.624 343.432 233.775 343.749 234.078C344.071 234.376 344.232 234.734 344.232 235.151C344.232 235.572 344.071 235.934 343.749 236.237C343.432 236.536 343.048 236.685 342.598 236.685ZM349.553 242.693V249H346.528V238.091H349.411V240.016H349.539C349.781 239.381 350.185 238.879 350.754 238.51C351.322 238.136 352.011 237.949 352.82 237.949C353.578 237.949 354.238 238.115 354.802 238.446C355.365 238.777 355.803 239.251 356.116 239.866C356.428 240.477 356.585 241.206 356.585 242.054V249H353.559V242.594C353.564 241.926 353.393 241.405 353.048 241.031C352.702 240.652 352.226 240.463 351.62 240.463C351.213 240.463 350.853 240.551 350.54 240.726C350.233 240.901 349.991 241.157 349.816 241.493C349.646 241.824 349.558 242.224 349.553 242.693ZM363.598 249V238.091H366.624V249H363.598ZM365.118 236.685C364.668 236.685 364.282 236.536 363.96 236.237C363.643 235.934 363.484 235.572 363.484 235.151C363.484 234.734 363.643 234.376 363.96 234.078C364.282 233.775 364.668 233.624 365.118 233.624C365.568 233.624 365.951 233.775 366.268 234.078C366.59 234.376 366.751 234.734 366.751 235.151C366.751 235.572 366.59 235.934 366.268 236.237C365.951 236.536 365.568 236.685 365.118 236.685ZM372.073 242.693V249H369.047V238.091H371.931V240.016H372.059C372.3 239.381 372.705 238.879 373.273 238.51C373.841 238.136 374.53 237.949 375.34 237.949C376.097 237.949 376.758 238.115 377.321 238.446C377.885 238.777 378.323 239.251 378.635 239.866C378.948 240.477 379.104 241.206 379.104 242.054V249H376.078V242.594C376.083 241.926 375.913 241.405 375.567 241.031C375.221 240.652 374.746 240.463 374.14 240.463C373.732 240.463 373.373 240.551 373.06 240.726C372.752 240.901 372.511 241.157 372.336 241.493C372.165 241.824 372.078 242.224 372.073 242.693ZM388.802 234.455L392.318 245.506H392.453L395.975 234.455H399.385L394.37 249H390.407L385.386 234.455H388.802ZM408.074 244.355V238.091H411.1V249H408.195V247.018H408.081C407.835 247.658 407.426 248.171 406.853 248.56C406.284 248.948 405.591 249.142 404.772 249.142C404.042 249.142 403.401 248.976 402.847 248.645C402.293 248.313 401.86 247.842 401.547 247.232C401.239 246.621 401.083 245.889 401.078 245.037V238.091H404.104V244.497C404.109 245.141 404.282 245.65 404.623 246.024C404.963 246.398 405.42 246.585 405.993 246.585C406.358 246.585 406.699 246.502 407.016 246.337C407.333 246.166 407.589 245.915 407.783 245.584C407.982 245.252 408.079 244.843 408.074 244.355ZM418.491 249.213C417.369 249.213 416.403 248.986 415.594 248.531C414.789 248.072 414.169 247.423 413.733 246.585C413.297 245.742 413.08 244.746 413.08 243.595C413.08 242.473 413.297 241.488 413.733 240.641C414.169 239.793 414.782 239.133 415.572 238.659C416.368 238.186 417.301 237.949 418.371 237.949C419.09 237.949 419.76 238.065 420.381 238.297C421.006 238.524 421.55 238.867 422.014 239.327C422.483 239.786 422.848 240.364 423.108 241.06C423.368 241.751 423.499 242.561 423.499 243.489V244.32H414.287V242.445H420.651C420.651 242.009 420.556 241.623 420.366 241.287C420.177 240.951 419.914 240.688 419.578 240.499C419.247 240.304 418.861 240.207 418.42 240.207C417.961 240.207 417.554 240.314 417.199 240.527C416.848 240.735 416.574 241.017 416.375 241.372C416.176 241.723 416.074 242.113 416.07 242.544V244.327C416.07 244.866 416.169 245.333 416.368 245.726C416.571 246.119 416.858 246.422 417.227 246.635C417.597 246.848 418.035 246.955 418.541 246.955C418.877 246.955 419.185 246.907 419.464 246.812C419.744 246.718 419.983 246.576 420.182 246.386C420.381 246.197 420.532 245.965 420.636 245.69L423.435 245.875C423.293 246.547 423.001 247.134 422.561 247.636C422.125 248.134 421.562 248.522 420.871 248.801C420.184 249.076 419.391 249.213 418.491 249.213Z" fill="black"/>
<rect x="1770" y="53" width="148" height="73" fill="#D9D9D9" stroke="black" stroke-width="2"/>
<path d="M1817.26 97V82.4545H1820.34V94.4645H1826.58V97H1817.26ZM1833.48 97.2131C1832.38 97.2131 1831.43 96.9787 1830.62 96.5099C1829.82 96.0365 1829.2 95.3783 1828.77 94.5355C1828.33 93.688 1828.11 92.7055 1828.11 91.5881C1828.11 90.4612 1828.33 89.4763 1828.77 88.6335C1829.2 87.786 1829.82 87.1278 1830.62 86.6591C1831.43 86.1856 1832.38 85.9489 1833.48 85.9489C1834.59 85.9489 1835.54 86.1856 1836.34 86.6591C1837.14 87.1278 1837.76 87.786 1838.2 88.6335C1838.64 89.4763 1838.85 90.4612 1838.85 91.5881C1838.85 92.7055 1838.64 93.688 1838.2 94.5355C1837.76 95.3783 1837.14 96.0365 1836.34 96.5099C1835.54 96.9787 1834.59 97.2131 1833.48 97.2131ZM1833.5 94.8693C1834 94.8693 1834.42 94.7273 1834.76 94.4432C1835.09 94.1544 1835.34 93.7614 1835.52 93.2642C1835.69 92.767 1835.78 92.2012 1835.78 91.5668C1835.78 90.9323 1835.69 90.3665 1835.52 89.8693C1835.34 89.3722 1835.09 88.9792 1834.76 88.6903C1834.42 88.4015 1834 88.2571 1833.5 88.2571C1832.99 88.2571 1832.57 88.4015 1832.22 88.6903C1831.88 88.9792 1831.62 89.3722 1831.45 89.8693C1831.28 90.3665 1831.19 90.9323 1831.19 91.5668C1831.19 92.2012 1831.28 92.767 1831.45 93.2642C1831.62 93.7614 1831.88 94.1544 1832.22 94.4432C1832.57 94.7273 1832.99 94.8693 1833.5 94.8693ZM1845.74 101.318C1844.76 101.318 1843.91 101.183 1843.21 100.913C1842.52 100.648 1841.96 100.286 1841.55 99.8267C1841.14 99.3674 1840.87 98.8513 1840.75 98.2784L1843.55 97.902C1843.63 98.1198 1843.77 98.3234 1843.95 98.5128C1844.14 98.7022 1844.38 98.8537 1844.68 98.9673C1844.99 99.0857 1845.37 99.1449 1845.81 99.1449C1846.46 99.1449 1847.01 98.9839 1847.43 98.6619C1847.86 98.3447 1848.08 97.812 1848.08 97.0639V95.0682H1847.95C1847.82 95.3712 1847.62 95.6577 1847.35 95.9276C1847.09 96.1974 1846.75 96.4176 1846.33 96.5881C1845.92 96.7585 1845.42 96.8438 1844.84 96.8438C1844.02 96.8438 1843.28 96.6544 1842.6 96.2756C1841.94 95.892 1841.4 95.3073 1841.01 94.5213C1840.61 93.7306 1840.42 92.7315 1840.42 91.5241C1840.42 90.2884 1840.62 89.2562 1841.02 88.4276C1841.42 87.599 1841.96 86.9787 1842.62 86.5668C1843.3 86.1548 1844.03 85.9489 1844.83 85.9489C1845.44 85.9489 1845.96 86.053 1846.37 86.2614C1846.78 86.465 1847.11 86.7206 1847.36 87.0284C1847.62 87.3314 1847.81 87.6297 1847.95 87.9233H1848.06V86.0909H1851.07V97.1065C1851.07 98.0346 1850.84 98.8111 1850.39 99.4361C1849.93 100.061 1849.3 100.53 1848.5 100.842C1847.7 101.16 1846.78 101.318 1845.74 101.318ZM1845.8 94.571C1846.29 94.571 1846.7 94.4503 1847.04 94.2088C1847.38 93.9626 1847.64 93.6122 1847.82 93.1577C1848 92.6984 1848.09 92.1491 1848.09 91.5099C1848.09 90.8707 1848 90.3168 1847.82 89.848C1847.64 89.3745 1847.38 89.0076 1847.04 88.7472C1846.7 88.4867 1846.29 88.3565 1845.8 88.3565C1845.3 88.3565 1844.88 88.4915 1844.54 88.7614C1844.2 89.0265 1843.94 89.3958 1843.77 89.8693C1843.59 90.3428 1843.51 90.8897 1843.51 91.5099C1843.51 92.1397 1843.59 92.6842 1843.77 93.1435C1843.95 93.598 1844.21 93.9508 1844.54 94.2017C1844.88 94.4479 1845.3 94.571 1845.8 94.571ZM1853.48 97V86.0909H1856.5V97H1853.48ZM1855 84.6847C1854.55 84.6847 1854.16 84.5355 1853.84 84.2372C1853.52 83.9342 1853.36 83.572 1853.36 83.1506C1853.36 82.7339 1853.52 82.3764 1853.84 82.0781C1854.16 81.7751 1854.55 81.6236 1855 81.6236C1855.45 81.6236 1855.83 81.7751 1856.15 82.0781C1856.47 82.3764 1856.63 82.7339 1856.63 83.1506C1856.63 83.572 1856.47 83.9342 1856.15 84.2372C1855.83 84.5355 1855.45 84.6847 1855 84.6847ZM1861.95 90.6932V97H1858.93V86.0909H1861.81V88.0156H1861.94C1862.18 87.3812 1862.58 86.8793 1863.15 86.5099C1863.72 86.1359 1864.41 85.9489 1865.22 85.9489C1865.98 85.9489 1866.64 86.1146 1867.2 86.446C1867.76 86.7775 1868.2 87.2509 1868.51 87.8665C1868.83 88.4773 1868.98 89.2064 1868.98 90.054V97H1865.96V90.5938C1865.96 89.9261 1865.79 89.4053 1865.45 89.0312C1865.1 88.6525 1864.62 88.4631 1864.02 88.4631C1863.61 88.4631 1863.25 88.5507 1862.94 88.7259C1862.63 88.901 1862.39 89.1567 1862.21 89.4929C1862.04 89.8243 1861.96 90.2244 1861.95 90.6932Z" fill="black"/>
<rect x="578" y="205" width="348" height="73" fill="#D9D9D9" stroke="black" stroke-width="2"/>
<path d="M644.631 241.727C644.631 243.313 644.33 244.663 643.729 245.776C643.132 246.888 642.318 247.738 641.286 248.325C640.258 248.908 639.103 249.199 637.82 249.199C636.527 249.199 635.367 248.905 634.339 248.318C633.312 247.731 632.5 246.881 631.903 245.768C631.307 244.656 631.009 243.309 631.009 241.727C631.009 240.141 631.307 238.792 631.903 237.679C632.5 236.566 633.312 235.719 634.339 235.136C635.367 234.549 636.527 234.256 637.82 234.256C639.103 234.256 640.258 234.549 641.286 235.136C642.318 235.719 643.132 236.566 643.729 237.679C644.33 238.792 644.631 240.141 644.631 241.727ZM641.513 241.727C641.513 240.7 641.359 239.833 641.051 239.128C640.748 238.422 640.32 237.887 639.766 237.523C639.212 237.158 638.563 236.976 637.82 236.976C637.076 236.976 636.428 237.158 635.874 237.523C635.32 237.887 634.889 238.422 634.581 239.128C634.278 239.833 634.126 240.7 634.126 241.727C634.126 242.755 634.278 243.621 634.581 244.327C634.889 245.032 635.32 245.567 635.874 245.932C636.428 246.296 637.076 246.479 637.82 246.479C638.563 246.479 639.212 246.296 639.766 245.932C640.32 245.567 640.748 245.032 641.051 244.327C641.359 243.621 641.513 242.755 641.513 241.727ZM646.852 253.091V238.091H649.835V239.923H649.97C650.102 239.63 650.294 239.331 650.545 239.028C650.801 238.721 651.132 238.465 651.539 238.261C651.951 238.053 652.463 237.949 653.074 237.949C653.869 237.949 654.603 238.157 655.275 238.574C655.948 238.986 656.485 239.608 656.887 240.442C657.29 241.27 657.491 242.31 657.491 243.56C657.491 244.777 657.295 245.804 656.902 246.642C656.513 247.475 655.983 248.107 655.311 248.538C654.643 248.964 653.895 249.178 653.066 249.178C652.479 249.178 651.98 249.08 651.568 248.886C651.161 248.692 650.827 248.448 650.566 248.155C650.306 247.857 650.107 247.556 649.97 247.253H649.877V253.091H646.852ZM649.814 243.545C649.814 244.194 649.904 244.76 650.083 245.243C650.263 245.726 650.524 246.102 650.865 246.372C651.206 246.637 651.62 246.77 652.108 246.77C652.6 246.77 653.017 246.635 653.358 246.365C653.699 246.09 653.957 245.712 654.132 245.229C654.312 244.741 654.402 244.18 654.402 243.545C654.402 242.916 654.314 242.362 654.139 241.884C653.964 241.405 653.706 241.031 653.365 240.761C653.024 240.491 652.605 240.357 652.108 240.357C651.615 240.357 651.199 240.487 650.858 240.747C650.521 241.008 650.263 241.377 650.083 241.855C649.904 242.333 649.814 242.897 649.814 243.545ZM664.48 249.213C663.358 249.213 662.392 248.986 661.582 248.531C660.777 248.072 660.157 247.423 659.721 246.585C659.286 245.742 659.068 244.746 659.068 243.595C659.068 242.473 659.286 241.488 659.721 240.641C660.157 239.793 660.77 239.133 661.561 238.659C662.356 238.186 663.289 237.949 664.359 237.949C665.079 237.949 665.749 238.065 666.369 238.297C666.994 238.524 667.538 238.867 668.002 239.327C668.471 239.786 668.836 240.364 669.096 241.06C669.357 241.751 669.487 242.561 669.487 243.489V244.32H660.275V242.445H666.639C666.639 242.009 666.544 241.623 666.355 241.287C666.165 240.951 665.903 240.688 665.566 240.499C665.235 240.304 664.849 240.207 664.409 240.207C663.949 240.207 663.542 240.314 663.187 240.527C662.837 240.735 662.562 241.017 662.363 241.372C662.164 241.723 662.063 242.113 662.058 242.544V244.327C662.058 244.866 662.157 245.333 662.356 245.726C662.56 246.119 662.846 246.422 663.216 246.635C663.585 246.848 664.023 246.955 664.529 246.955C664.866 246.955 665.173 246.907 665.453 246.812C665.732 246.718 665.971 246.576 666.17 246.386C666.369 246.197 666.52 245.965 666.625 245.69L669.423 245.875C669.281 246.547 668.99 247.134 668.549 247.636C668.114 248.134 667.55 248.522 666.859 248.801C666.172 249.076 665.379 249.213 664.48 249.213ZM674.487 242.693V249H671.461V238.091H674.345V240.016H674.473C674.714 239.381 675.119 238.879 675.687 238.51C676.255 238.136 676.944 237.949 677.754 237.949C678.511 237.949 679.172 238.115 679.735 238.446C680.299 238.777 680.737 239.251 681.049 239.866C681.362 240.477 681.518 241.206 681.518 242.054V249H678.493V242.594C678.497 241.926 678.327 241.405 677.981 241.031C677.636 240.652 677.16 240.463 676.554 240.463C676.146 240.463 675.787 240.551 675.474 240.726C675.166 240.901 674.925 241.157 674.75 241.493C674.579 241.824 674.492 242.224 674.487 242.693ZM695.527 244.355V238.091H698.553V249H695.648V247.018H695.534C695.288 247.658 694.879 248.171 694.306 248.56C693.738 248.948 693.044 249.142 692.225 249.142C691.496 249.142 690.854 248.976 690.3 248.645C689.746 248.313 689.313 247.842 689 247.232C688.693 246.621 688.536 245.889 688.532 245.037V238.091H691.557V244.497C691.562 245.141 691.735 245.65 692.076 246.024C692.417 246.398 692.873 246.585 693.446 246.585C693.811 246.585 694.152 246.502 694.469 246.337C694.786 246.166 695.042 245.915 695.236 245.584C695.435 245.252 695.532 244.843 695.527 244.355ZM710.05 241.202L707.28 241.372C707.232 241.135 707.131 240.922 706.974 240.733C706.818 240.539 706.612 240.385 706.357 240.271C706.106 240.153 705.805 240.094 705.455 240.094C704.986 240.094 704.59 240.193 704.268 240.392C703.946 240.586 703.786 240.847 703.786 241.173C703.786 241.434 703.89 241.654 704.098 241.834C704.306 242.014 704.664 242.158 705.17 242.267L707.145 242.665C708.205 242.883 708.996 243.233 709.517 243.716C710.038 244.199 710.298 244.833 710.298 245.619C710.298 246.334 710.088 246.962 709.666 247.501C709.25 248.041 708.677 248.463 707.947 248.766C707.223 249.064 706.387 249.213 705.44 249.213C703.996 249.213 702.846 248.912 701.989 248.311C701.136 247.705 700.637 246.881 700.49 245.839L703.466 245.683C703.556 246.124 703.774 246.46 704.119 246.692C704.465 246.919 704.908 247.033 705.447 247.033C705.978 247.033 706.404 246.931 706.726 246.727C707.053 246.519 707.218 246.251 707.223 245.925C707.218 245.65 707.102 245.425 706.875 245.25C706.648 245.07 706.297 244.933 705.824 244.838L703.935 244.462C702.869 244.249 702.076 243.879 701.555 243.354C701.039 242.828 700.781 242.158 700.781 241.344C700.781 240.643 700.971 240.039 701.349 239.533C701.733 239.026 702.27 238.635 702.962 238.361C703.658 238.086 704.472 237.949 705.405 237.949C706.783 237.949 707.867 238.24 708.658 238.822C709.453 239.405 709.917 240.198 710.05 241.202ZM717.175 249.213C716.053 249.213 715.087 248.986 714.277 248.531C713.472 248.072 712.852 247.423 712.417 246.585C711.981 245.742 711.763 244.746 711.763 243.595C711.763 242.473 711.981 241.488 712.417 240.641C712.852 239.793 713.465 239.133 714.256 238.659C715.051 238.186 715.984 237.949 717.054 237.949C717.774 237.949 718.444 238.065 719.064 238.297C719.689 238.524 720.234 238.867 720.698 239.327C721.167 239.786 721.531 240.364 721.792 241.06C722.052 241.751 722.182 242.561 722.182 243.489V244.32H712.971V242.445H719.334C719.334 242.009 719.239 241.623 719.05 241.287C718.861 240.951 718.598 240.688 718.262 240.499C717.93 240.304 717.544 240.207 717.104 240.207C716.645 240.207 716.238 240.314 715.882 240.527C715.532 240.735 715.257 241.017 715.059 241.372C714.86 241.723 714.758 242.113 714.753 242.544V244.327C714.753 244.866 714.853 245.333 715.051 245.726C715.255 246.119 715.542 246.422 715.911 246.635C716.28 246.848 716.718 246.955 717.225 246.955C717.561 246.955 717.869 246.907 718.148 246.812C718.427 246.718 718.667 246.576 718.865 246.386C719.064 246.197 719.216 245.965 719.32 245.69L722.118 245.875C721.976 246.547 721.685 247.134 721.245 247.636C720.809 248.134 720.246 248.522 719.554 248.801C718.868 249.076 718.075 249.213 717.175 249.213ZM724.157 249V238.091H727.09V239.994H727.203C727.402 239.317 727.736 238.806 728.205 238.46C728.674 238.11 729.213 237.935 729.824 237.935C729.976 237.935 730.139 237.944 730.314 237.963C730.489 237.982 730.643 238.008 730.776 238.041V240.726C730.634 240.683 730.437 240.645 730.186 240.612C729.935 240.579 729.706 240.562 729.498 240.562C729.052 240.562 728.655 240.66 728.304 240.854C727.959 241.043 727.684 241.308 727.48 241.649C727.282 241.99 727.182 242.383 727.182 242.828V249H724.157ZM736.969 249V238.091H739.995V249H736.969ZM738.489 236.685C738.039 236.685 737.653 236.536 737.331 236.237C737.014 235.934 736.855 235.572 736.855 235.151C736.855 234.734 737.014 234.376 737.331 234.078C737.653 233.775 738.039 233.624 738.489 233.624C738.939 233.624 739.322 233.775 739.64 234.078C739.962 234.376 740.123 234.734 740.123 235.151C740.123 235.572 739.962 235.934 739.64 236.237C739.322 236.536 738.939 236.685 738.489 236.685ZM745.444 242.693V249H742.418V238.091H745.302V240.016H745.43C745.671 239.381 746.076 238.879 746.644 238.51C747.212 238.136 747.901 237.949 748.711 237.949C749.469 237.949 750.129 238.115 750.692 238.446C751.256 238.777 751.694 239.251 752.006 239.866C752.319 240.477 752.475 241.206 752.475 242.054V249H749.45V242.594C749.454 241.926 749.284 241.405 748.938 241.031C748.593 240.652 748.117 240.463 747.511 240.463C747.103 240.463 746.744 240.551 746.431 240.726C746.123 240.901 745.882 241.157 745.707 241.493C745.536 241.824 745.449 242.224 745.444 242.693ZM760.726 238.091V240.364H753.993V238.091H760.726ZM755.534 249V237.303C755.534 236.512 755.688 235.856 755.996 235.335C756.309 234.814 756.735 234.424 757.275 234.163C757.814 233.903 758.427 233.773 759.114 233.773C759.578 233.773 760.002 233.808 760.385 233.879C760.774 233.95 761.062 234.014 761.252 234.071L760.712 236.344C760.594 236.306 760.447 236.27 760.272 236.237C760.101 236.204 759.926 236.188 759.746 236.188C759.301 236.188 758.991 236.292 758.816 236.5C758.641 236.704 758.553 236.99 758.553 237.359V249H755.534ZM767.113 249.213C766.01 249.213 765.056 248.979 764.251 248.51C763.451 248.036 762.833 247.378 762.397 246.536C761.961 245.688 761.744 244.705 761.744 243.588C761.744 242.461 761.961 241.476 762.397 240.634C762.833 239.786 763.451 239.128 764.251 238.659C765.056 238.186 766.01 237.949 767.113 237.949C768.216 237.949 769.168 238.186 769.968 238.659C770.773 239.128 771.393 239.786 771.829 240.634C772.264 241.476 772.482 242.461 772.482 243.588C772.482 244.705 772.264 245.688 771.829 246.536C771.393 247.378 770.773 248.036 769.968 248.51C769.168 248.979 768.216 249.213 767.113 249.213ZM767.127 246.869C767.629 246.869 768.048 246.727 768.384 246.443C768.72 246.154 768.974 245.761 769.144 245.264C769.319 244.767 769.407 244.201 769.407 243.567C769.407 242.932 769.319 242.366 769.144 241.869C768.974 241.372 768.72 240.979 768.384 240.69C768.048 240.402 767.629 240.257 767.127 240.257C766.621 240.257 766.194 240.402 765.849 240.69C765.508 240.979 765.25 241.372 765.075 241.869C764.904 242.366 764.819 242.932 764.819 243.567C764.819 244.201 764.904 244.767 765.075 245.264C765.25 245.761 765.508 246.154 765.849 246.443C766.194 246.727 766.621 246.869 767.127 246.869ZM779.078 249V238.091H782.104V249H779.078ZM780.598 236.685C780.149 236.685 779.763 236.536 779.441 236.237C779.123 235.934 778.965 235.572 778.965 235.151C778.965 234.734 779.123 234.376 779.441 234.078C779.763 233.775 780.149 233.624 780.598 233.624C781.048 233.624 781.432 233.775 781.749 234.078C782.071 234.376 782.232 234.734 782.232 235.151C782.232 235.572 782.071 235.934 781.749 236.237C781.432 236.536 781.048 236.685 780.598 236.685ZM787.553 242.693V249H784.528V238.091H787.411V240.016H787.539C787.781 239.381 788.185 238.879 788.754 238.51C789.322 238.136 790.011 237.949 790.82 237.949C791.578 237.949 792.238 238.115 792.802 238.446C793.365 238.777 793.803 239.251 794.116 239.866C794.428 240.477 794.585 241.206 794.585 242.054V249H791.559V242.594C791.564 241.926 791.393 241.405 791.048 241.031C790.702 240.652 790.226 240.463 789.62 240.463C789.213 240.463 788.853 240.551 788.54 240.726C788.233 240.901 787.991 241.157 787.816 241.493C787.646 241.824 787.558 242.224 787.553 242.693ZM801.598 249V238.091H804.624V249H801.598ZM803.118 236.685C802.668 236.685 802.282 236.536 801.96 236.237C801.643 235.934 801.484 235.572 801.484 235.151C801.484 234.734 801.643 234.376 801.96 234.078C802.282 233.775 802.668 233.624 803.118 233.624C803.568 233.624 803.951 233.775 804.268 234.078C804.59 234.376 804.751 234.734 804.751 235.151C804.751 235.572 804.59 235.934 804.268 236.237C803.951 236.536 803.568 236.685 803.118 236.685ZM810.073 242.693V249H807.047V238.091H809.931V240.016H810.059C810.3 239.381 810.705 238.879 811.273 238.51C811.841 238.136 812.53 237.949 813.34 237.949C814.097 237.949 814.758 238.115 815.321 238.446C815.885 238.777 816.323 239.251 816.635 239.866C816.948 240.477 817.104 241.206 817.104 242.054V249H814.078V242.594C814.083 241.926 813.913 241.405 813.567 241.031C813.221 240.652 812.746 240.463 812.14 240.463C811.732 240.463 811.373 240.551 811.06 240.726C810.752 240.901 810.511 241.157 810.336 241.493C810.165 241.824 810.078 242.224 810.073 242.693ZM832.065 238.638C832.008 238.065 831.764 237.62 831.333 237.303C830.903 236.985 830.318 236.827 829.579 236.827C829.077 236.827 828.654 236.898 828.308 237.04C827.962 237.177 827.697 237.369 827.512 237.615C827.333 237.861 827.243 238.141 827.243 238.453C827.233 238.714 827.288 238.941 827.406 239.135C827.529 239.329 827.697 239.497 827.91 239.639C828.123 239.777 828.369 239.897 828.649 240.001C828.928 240.101 829.226 240.186 829.544 240.257L830.85 240.57C831.485 240.712 832.067 240.901 832.598 241.138C833.128 241.375 833.587 241.666 833.975 242.011C834.364 242.357 834.664 242.764 834.877 243.233C835.095 243.702 835.207 244.239 835.211 244.845C835.207 245.735 834.979 246.507 834.529 247.161C834.084 247.809 833.44 248.313 832.598 248.673C831.76 249.028 830.749 249.206 829.565 249.206C828.391 249.206 827.368 249.026 826.497 248.666C825.63 248.306 824.953 247.774 824.466 247.068C823.983 246.358 823.729 245.48 823.706 244.433H826.681C826.715 244.921 826.854 245.328 827.1 245.655C827.351 245.977 827.685 246.221 828.102 246.386C828.523 246.547 828.999 246.628 829.529 246.628C830.05 246.628 830.502 246.552 830.886 246.401C831.274 246.249 831.575 246.038 831.788 245.768C832.001 245.499 832.108 245.188 832.108 244.838C832.108 244.511 832.011 244.237 831.816 244.014C831.627 243.792 831.348 243.602 830.978 243.446C830.614 243.29 830.166 243.148 829.636 243.02L828.052 242.622C826.826 242.324 825.858 241.857 825.147 241.223C824.437 240.589 824.084 239.734 824.089 238.659C824.084 237.778 824.319 237.009 824.792 236.351C825.27 235.693 825.926 235.179 826.76 234.81C827.593 234.44 828.54 234.256 829.6 234.256C830.68 234.256 831.622 234.44 832.427 234.81C833.237 235.179 833.867 235.693 834.316 236.351C834.766 237.009 834.998 237.771 835.012 238.638H832.065ZM847.393 238.091L843.58 249H840.17L836.357 238.091H839.553L841.818 245.896H841.932L844.19 238.091H847.393ZM853.562 249.213C852.44 249.213 851.474 248.986 850.664 248.531C849.859 248.072 849.239 247.423 848.803 246.585C848.368 245.742 848.15 244.746 848.15 243.595C848.15 242.473 848.368 241.488 848.803 240.641C849.239 239.793 849.852 239.133 850.643 238.659C851.438 238.186 852.371 237.949 853.441 237.949C854.161 237.949 854.831 238.065 855.451 238.297C856.076 238.524 856.621 238.867 857.085 239.327C857.553 239.786 857.918 240.364 858.178 241.06C858.439 241.751 858.569 242.561 858.569 243.489V244.32H849.357V242.445H855.721C855.721 242.009 855.626 241.623 855.437 241.287C855.247 240.951 854.985 240.688 854.648 240.499C854.317 240.304 853.931 240.207 853.491 240.207C853.031 240.207 852.624 240.314 852.269 240.527C851.919 240.735 851.644 241.017 851.445 241.372C851.246 241.723 851.145 242.113 851.14 242.544V244.327C851.14 244.866 851.239 245.333 851.438 245.726C851.642 246.119 851.928 246.422 852.298 246.635C852.667 246.848 853.105 246.955 853.612 246.955C853.948 246.955 854.255 246.907 854.535 246.812C854.814 246.718 855.053 246.576 855.252 246.386C855.451 246.197 855.603 245.965 855.707 245.69L858.505 245.875C858.363 246.547 858.072 247.134 857.631 247.636C857.196 248.134 856.632 248.522 855.941 248.801C855.254 249.076 854.461 249.213 853.562 249.213ZM863.569 234.455V249H860.543V234.455H863.569ZM871.795 238.091V240.364H865.225V238.091H871.795ZM866.717 235.477H869.743V245.648C869.743 245.927 869.785 246.145 869.87 246.301C869.956 246.453 870.074 246.559 870.225 246.621C870.382 246.682 870.562 246.713 870.765 246.713C870.907 246.713 871.049 246.701 871.191 246.678C871.333 246.649 871.442 246.628 871.518 246.614L871.994 248.865C871.842 248.912 871.629 248.967 871.355 249.028C871.08 249.095 870.746 249.135 870.353 249.149C869.624 249.178 868.985 249.08 868.436 248.858C867.891 248.635 867.467 248.29 867.164 247.821C866.861 247.352 866.712 246.76 866.717 246.045V235.477ZM878.62 249.213C877.498 249.213 876.532 248.986 875.723 248.531C874.918 248.072 874.297 247.423 873.862 246.585C873.426 245.742 873.208 244.746 873.208 243.595C873.208 242.473 873.426 241.488 873.862 240.641C874.297 239.793 874.911 239.133 875.701 238.659C876.497 238.186 877.43 237.949 878.5 237.949C879.219 237.949 879.889 238.065 880.51 238.297C881.135 238.524 881.679 238.867 882.143 239.327C882.612 239.786 882.976 240.364 883.237 241.06C883.497 241.751 883.627 242.561 883.627 243.489V244.32H874.416V242.445H880.779C880.779 242.009 880.685 241.623 880.495 241.287C880.306 240.951 880.043 240.688 879.707 240.499C879.376 240.304 878.99 240.207 878.549 240.207C878.09 240.207 877.683 240.314 877.328 240.527C876.977 240.735 876.703 241.017 876.504 241.372C876.305 241.723 876.203 242.113 876.199 242.544V244.327C876.199 244.866 876.298 245.333 876.497 245.726C876.7 246.119 876.987 246.422 877.356 246.635C877.725 246.848 878.163 246.955 878.67 246.955C879.006 246.955 879.314 246.907 879.593 246.812C879.873 246.718 880.112 246.576 880.311 246.386C880.51 246.197 880.661 245.965 880.765 245.69L883.564 245.875C883.422 246.547 883.13 247.134 882.69 247.636C882.254 248.134 881.691 248.522 881 248.801C880.313 249.076 879.52 249.213 878.62 249.213Z" fill="black"/>
<rect x="1035" y="205" width="348" height="73" fill="#D9D9D9" stroke="black" stroke-width="2"/>
<path d="M1098.63 241.727C1098.63 243.313 1098.33 244.663 1097.73 245.776C1097.13 246.888 1096.32 247.738 1095.29 248.325C1094.26 248.908 1093.1 249.199 1091.82 249.199C1090.53 249.199 1089.37 248.905 1088.34 248.318C1087.31 247.731 1086.5 246.881 1085.9 245.768C1085.31 244.656 1085.01 243.309 1085.01 241.727C1085.01 240.141 1085.31 238.792 1085.9 237.679C1086.5 236.566 1087.31 235.719 1088.34 235.136C1089.37 234.549 1090.53 234.256 1091.82 234.256C1093.1 234.256 1094.26 234.549 1095.29 235.136C1096.32 235.719 1097.13 236.566 1097.73 237.679C1098.33 238.792 1098.63 240.141 1098.63 241.727ZM1095.51 241.727C1095.51 240.7 1095.36 239.833 1095.05 239.128C1094.75 238.422 1094.32 237.887 1093.77 237.523C1093.21 237.158 1092.56 236.976 1091.82 236.976C1091.08 236.976 1090.43 237.158 1089.87 237.523C1089.32 237.887 1088.89 238.422 1088.58 239.128C1088.28 239.833 1088.13 240.7 1088.13 241.727C1088.13 242.755 1088.28 243.621 1088.58 244.327C1088.89 245.032 1089.32 245.567 1089.87 245.932C1090.43 246.296 1091.08 246.479 1091.82 246.479C1092.56 246.479 1093.21 246.296 1093.77 245.932C1094.32 245.567 1094.75 245.032 1095.05 244.327C1095.36 243.621 1095.51 242.755 1095.51 241.727ZM1100.85 253.091V238.091H1103.83V239.923H1103.97C1104.1 239.63 1104.29 239.331 1104.55 239.028C1104.8 238.721 1105.13 238.465 1105.54 238.261C1105.95 238.053 1106.46 237.949 1107.07 237.949C1107.87 237.949 1108.6 238.157 1109.28 238.574C1109.95 238.986 1110.48 239.608 1110.89 240.442C1111.29 241.27 1111.49 242.31 1111.49 243.56C1111.49 244.777 1111.29 245.804 1110.9 246.642C1110.51 247.475 1109.98 248.107 1109.31 248.538C1108.64 248.964 1107.9 249.178 1107.07 249.178C1106.48 249.178 1105.98 249.08 1105.57 248.886C1105.16 248.692 1104.83 248.448 1104.57 248.155C1104.31 247.857 1104.11 247.556 1103.97 247.253H1103.88V253.091H1100.85ZM1103.81 243.545C1103.81 244.194 1103.9 244.76 1104.08 245.243C1104.26 245.726 1104.52 246.102 1104.86 246.372C1105.21 246.637 1105.62 246.77 1106.11 246.77C1106.6 246.77 1107.02 246.635 1107.36 246.365C1107.7 246.09 1107.96 245.712 1108.13 245.229C1108.31 244.741 1108.4 244.18 1108.4 243.545C1108.4 242.916 1108.31 242.362 1108.14 241.884C1107.96 241.405 1107.71 241.031 1107.36 240.761C1107.02 240.491 1106.6 240.357 1106.11 240.357C1105.62 240.357 1105.2 240.487 1104.86 240.747C1104.52 241.008 1104.26 241.377 1104.08 241.855C1103.9 242.333 1103.81 242.897 1103.81 243.545ZM1118.48 249.213C1117.36 249.213 1116.39 248.986 1115.58 248.531C1114.78 248.072 1114.16 247.423 1113.72 246.585C1113.29 245.742 1113.07 244.746 1113.07 243.595C1113.07 242.473 1113.29 241.488 1113.72 240.641C1114.16 239.793 1114.77 239.133 1115.56 238.659C1116.36 238.186 1117.29 237.949 1118.36 237.949C1119.08 237.949 1119.75 238.065 1120.37 238.297C1120.99 238.524 1121.54 238.867 1122 239.327C1122.47 239.786 1122.84 240.364 1123.1 241.06C1123.36 241.751 1123.49 242.561 1123.49 243.489V244.32H1114.28V242.445H1120.64C1120.64 242.009 1120.54 241.623 1120.35 241.287C1120.17 240.951 1119.9 240.688 1119.57 240.499C1119.23 240.304 1118.85 240.207 1118.41 240.207C1117.95 240.207 1117.54 240.314 1117.19 240.527C1116.84 240.735 1116.56 241.017 1116.36 241.372C1116.16 241.723 1116.06 242.113 1116.06 242.544V244.327C1116.06 244.866 1116.16 245.333 1116.36 245.726C1116.56 246.119 1116.85 246.422 1117.22 246.635C1117.58 246.848 1118.02 246.955 1118.53 246.955C1118.87 246.955 1119.17 246.907 1119.45 246.812C1119.73 246.718 1119.97 246.576 1120.17 246.386C1120.37 246.197 1120.52 245.965 1120.62 245.69L1123.42 245.875C1123.28 246.547 1122.99 247.134 1122.55 247.636C1122.11 248.134 1121.55 248.522 1120.86 248.801C1120.17 249.076 1119.38 249.213 1118.48 249.213ZM1128.49 242.693V249H1125.46V238.091H1128.34V240.016H1128.47C1128.71 239.381 1129.12 238.879 1129.69 238.51C1130.26 238.136 1130.94 237.949 1131.75 237.949C1132.51 237.949 1133.17 238.115 1133.74 238.446C1134.3 238.777 1134.74 239.251 1135.05 239.866C1135.36 240.477 1135.52 241.206 1135.52 242.054V249H1132.49V242.594C1132.5 241.926 1132.33 241.405 1131.98 241.031C1131.64 240.652 1131.16 240.463 1130.55 240.463C1130.15 240.463 1129.79 240.551 1129.47 240.726C1129.17 240.901 1128.92 241.157 1128.75 241.493C1128.58 241.824 1128.49 242.224 1128.49 242.693ZM1149.53 244.355V238.091H1152.55V249H1149.65V247.018H1149.53C1149.29 247.658 1148.88 248.171 1148.31 248.56C1147.74 248.948 1147.04 249.142 1146.22 249.142C1145.5 249.142 1144.85 248.976 1144.3 248.645C1143.75 248.313 1143.31 247.842 1143 247.232C1142.69 246.621 1142.54 245.889 1142.53 245.037V238.091H1145.56V244.497C1145.56 245.141 1145.73 245.65 1146.08 246.024C1146.42 246.398 1146.87 246.585 1147.45 246.585C1147.81 246.585 1148.15 246.502 1148.47 246.337C1148.79 246.166 1149.04 245.915 1149.24 245.584C1149.44 245.252 1149.53 244.843 1149.53 244.355ZM1164.05 241.202L1161.28 241.372C1161.23 241.135 1161.13 240.922 1160.97 240.733C1160.82 240.539 1160.61 240.385 1160.36 240.271C1160.11 240.153 1159.8 240.094 1159.45 240.094C1158.99 240.094 1158.59 240.193 1158.27 240.392C1157.95 240.586 1157.79 240.847 1157.79 241.173C1157.79 241.434 1157.89 241.654 1158.1 241.834C1158.31 242.014 1158.66 242.158 1159.17 242.267L1161.14 242.665C1162.21 242.883 1163 243.233 1163.52 243.716C1164.04 244.199 1164.3 244.833 1164.3 245.619C1164.3 246.334 1164.09 246.962 1163.67 247.501C1163.25 248.041 1162.68 248.463 1161.95 248.766C1161.22 249.064 1160.39 249.213 1159.44 249.213C1158 249.213 1156.85 248.912 1155.99 248.311C1155.14 247.705 1154.64 246.881 1154.49 245.839L1157.47 245.683C1157.56 246.124 1157.77 246.46 1158.12 246.692C1158.46 246.919 1158.91 247.033 1159.45 247.033C1159.98 247.033 1160.4 246.931 1160.73 246.727C1161.05 246.519 1161.22 246.251 1161.22 245.925C1161.22 245.65 1161.1 245.425 1160.88 245.25C1160.65 245.07 1160.3 244.933 1159.82 244.838L1157.93 244.462C1156.87 244.249 1156.08 243.879 1155.56 243.354C1155.04 242.828 1154.78 242.158 1154.78 241.344C1154.78 240.643 1154.97 240.039 1155.35 239.533C1155.73 239.026 1156.27 238.635 1156.96 238.361C1157.66 238.086 1158.47 237.949 1159.4 237.949C1160.78 237.949 1161.87 238.24 1162.66 238.822C1163.45 239.405 1163.92 240.198 1164.05 241.202ZM1171.18 249.213C1170.05 249.213 1169.09 248.986 1168.28 248.531C1167.47 248.072 1166.85 247.423 1166.42 246.585C1165.98 245.742 1165.76 244.746 1165.76 243.595C1165.76 242.473 1165.98 241.488 1166.42 240.641C1166.85 239.793 1167.47 239.133 1168.26 238.659C1169.05 238.186 1169.98 237.949 1171.05 237.949C1171.77 237.949 1172.44 238.065 1173.06 238.297C1173.69 238.524 1174.23 238.867 1174.7 239.327C1175.17 239.786 1175.53 240.364 1175.79 241.06C1176.05 241.751 1176.18 242.561 1176.18 243.489V244.32H1166.97V242.445H1173.33C1173.33 242.009 1173.24 241.623 1173.05 241.287C1172.86 240.951 1172.6 240.688 1172.26 240.499C1171.93 240.304 1171.54 240.207 1171.1 240.207C1170.64 240.207 1170.24 240.314 1169.88 240.527C1169.53 240.735 1169.26 241.017 1169.06 241.372C1168.86 241.723 1168.76 242.113 1168.75 242.544V244.327C1168.75 244.866 1168.85 245.333 1169.05 245.726C1169.26 246.119 1169.54 246.422 1169.91 246.635C1170.28 246.848 1170.72 246.955 1171.22 246.955C1171.56 246.955 1171.87 246.907 1172.15 246.812C1172.43 246.718 1172.67 246.576 1172.87 246.386C1173.06 246.197 1173.22 245.965 1173.32 245.69L1176.12 245.875C1175.98 246.547 1175.69 247.134 1175.24 247.636C1174.81 248.134 1174.25 248.522 1173.55 248.801C1172.87 249.076 1172.07 249.213 1171.18 249.213ZM1178.16 249V238.091H1181.09V239.994H1181.2C1181.4 239.317 1181.74 238.806 1182.2 238.46C1182.67 238.11 1183.21 237.935 1183.82 237.935C1183.98 237.935 1184.14 237.944 1184.31 237.963C1184.49 237.982 1184.64 238.008 1184.78 238.041V240.726C1184.63 240.683 1184.44 240.645 1184.19 240.612C1183.94 240.579 1183.71 240.562 1183.5 240.562C1183.05 240.562 1182.65 240.66 1182.3 240.854C1181.96 241.043 1181.68 241.308 1181.48 241.649C1181.28 241.99 1181.18 242.383 1181.18 242.828V249H1178.16ZM1190.97 249V238.091H1193.99V249H1190.97ZM1192.49 236.685C1192.04 236.685 1191.65 236.536 1191.33 236.237C1191.01 235.934 1190.86 235.572 1190.86 235.151C1190.86 234.734 1191.01 234.376 1191.33 234.078C1191.65 233.775 1192.04 233.624 1192.49 233.624C1192.94 233.624 1193.32 233.775 1193.64 234.078C1193.96 234.376 1194.12 234.734 1194.12 235.151C1194.12 235.572 1193.96 235.934 1193.64 236.237C1193.32 236.536 1192.94 236.685 1192.49 236.685ZM1199.44 242.693V249H1196.42V238.091H1199.3V240.016H1199.43C1199.67 239.381 1200.08 238.879 1200.64 238.51C1201.21 238.136 1201.9 237.949 1202.71 237.949C1203.47 237.949 1204.13 238.115 1204.69 238.446C1205.26 238.777 1205.69 239.251 1206.01 239.866C1206.32 240.477 1206.48 241.206 1206.48 242.054V249H1203.45V242.594C1203.45 241.926 1203.28 241.405 1202.94 241.031C1202.59 240.652 1202.12 240.463 1201.51 240.463C1201.1 240.463 1200.74 240.551 1200.43 240.726C1200.12 240.901 1199.88 241.157 1199.71 241.493C1199.54 241.824 1199.45 242.224 1199.44 242.693ZM1214.73 238.091V240.364H1207.99V238.091H1214.73ZM1209.53 249V237.303C1209.53 236.512 1209.69 235.856 1210 235.335C1210.31 234.814 1210.73 234.424 1211.27 234.163C1211.81 233.903 1212.43 233.773 1213.11 233.773C1213.58 233.773 1214 233.808 1214.39 233.879C1214.77 233.95 1215.06 234.014 1215.25 234.071L1214.71 236.344C1214.59 236.306 1214.45 236.27 1214.27 236.237C1214.1 236.204 1213.93 236.188 1213.75 236.188C1213.3 236.188 1212.99 236.292 1212.82 236.5C1212.64 236.704 1212.55 236.99 1212.55 237.359V249H1209.53ZM1221.11 249.213C1220.01 249.213 1219.06 248.979 1218.25 248.51C1217.45 248.036 1216.83 247.378 1216.4 246.536C1215.96 245.688 1215.74 244.705 1215.74 243.588C1215.74 242.461 1215.96 241.476 1216.4 240.634C1216.83 239.786 1217.45 239.128 1218.25 238.659C1219.06 238.186 1220.01 237.949 1221.11 237.949C1222.22 237.949 1223.17 238.186 1223.97 238.659C1224.77 239.128 1225.39 239.786 1225.83 240.634C1226.26 241.476 1226.48 242.461 1226.48 243.588C1226.48 244.705 1226.26 245.688 1225.83 246.536C1225.39 247.378 1224.77 248.036 1223.97 248.51C1223.17 248.979 1222.22 249.213 1221.11 249.213ZM1221.13 246.869C1221.63 246.869 1222.05 246.727 1222.38 246.443C1222.72 246.154 1222.97 245.761 1223.14 245.264C1223.32 244.767 1223.41 244.201 1223.41 243.567C1223.41 242.932 1223.32 242.366 1223.14 241.869C1222.97 241.372 1222.72 240.979 1222.38 240.69C1222.05 240.402 1221.63 240.257 1221.13 240.257C1220.62 240.257 1220.19 240.402 1219.85 240.69C1219.51 240.979 1219.25 241.372 1219.07 241.869C1218.9 242.366 1218.82 242.932 1218.82 243.567C1218.82 244.201 1218.9 244.767 1219.07 245.264C1219.25 245.761 1219.51 246.154 1219.85 246.443C1220.19 246.727 1220.62 246.869 1221.13 246.869ZM1233.08 249V238.091H1236.1V249H1233.08ZM1234.6 236.685C1234.15 236.685 1233.76 236.536 1233.44 236.237C1233.12 235.934 1232.96 235.572 1232.96 235.151C1232.96 234.734 1233.12 234.376 1233.44 234.078C1233.76 233.775 1234.15 233.624 1234.6 233.624C1235.05 233.624 1235.43 233.775 1235.75 234.078C1236.07 234.376 1236.23 234.734 1236.23 235.151C1236.23 235.572 1236.07 235.934 1235.75 236.237C1235.43 236.536 1235.05 236.685 1234.6 236.685ZM1241.55 242.693V249H1238.53V238.091H1241.41V240.016H1241.54C1241.78 239.381 1242.19 238.879 1242.75 238.51C1243.32 238.136 1244.01 237.949 1244.82 237.949C1245.58 237.949 1246.24 238.115 1246.8 238.446C1247.37 238.777 1247.8 239.251 1248.12 239.866C1248.43 240.477 1248.58 241.206 1248.58 242.054V249H1245.56V242.594C1245.56 241.926 1245.39 241.405 1245.05 241.031C1244.7 240.652 1244.23 240.463 1243.62 240.463C1243.21 240.463 1242.85 240.551 1242.54 240.726C1242.23 240.901 1241.99 241.157 1241.82 241.493C1241.65 241.824 1241.56 242.224 1241.55 242.693ZM1255.6 249V238.091H1258.62V249H1255.6ZM1257.12 236.685C1256.67 236.685 1256.28 236.536 1255.96 236.237C1255.64 235.934 1255.48 235.572 1255.48 235.151C1255.48 234.734 1255.64 234.376 1255.96 234.078C1256.28 233.775 1256.67 233.624 1257.12 233.624C1257.57 233.624 1257.95 233.775 1258.27 234.078C1258.59 234.376 1258.75 234.734 1258.75 235.151C1258.75 235.572 1258.59 235.934 1258.27 236.237C1257.95 236.536 1257.57 236.685 1257.12 236.685ZM1264.07 242.693V249H1261.05V238.091H1263.93V240.016H1264.06C1264.3 239.381 1264.7 238.879 1265.27 238.51C1265.84 238.136 1266.53 237.949 1267.34 237.949C1268.1 237.949 1268.76 238.115 1269.32 238.446C1269.88 238.777 1270.32 239.251 1270.64 239.866C1270.95 240.477 1271.1 241.206 1271.1 242.054V249H1268.08V242.594C1268.08 241.926 1267.91 241.405 1267.57 241.031C1267.22 240.652 1266.75 240.463 1266.14 240.463C1265.73 240.463 1265.37 240.551 1265.06 240.726C1264.75 240.901 1264.51 241.157 1264.34 241.493C1264.17 241.824 1264.08 242.224 1264.07 242.693ZM1278.17 249V234.455H1283.91C1285.01 234.455 1285.95 234.651 1286.73 235.044C1287.51 235.432 1288.1 235.984 1288.51 236.699C1288.92 237.409 1289.13 238.245 1289.13 239.206C1289.13 240.172 1288.92 241.003 1288.5 241.699C1288.08 242.39 1287.48 242.92 1286.69 243.29C1285.9 243.659 1284.95 243.844 1283.83 243.844H1279.99V241.372H1283.34C1283.92 241.372 1284.41 241.292 1284.8 241.131C1285.19 240.97 1285.48 240.728 1285.67 240.406C1285.86 240.084 1285.96 239.684 1285.96 239.206C1285.96 238.723 1285.86 238.316 1285.67 237.984C1285.48 237.653 1285.19 237.402 1284.79 237.232C1284.41 237.056 1283.92 236.969 1283.32 236.969H1281.25V249H1278.17ZM1286.03 242.381L1289.64 249H1286.25L1282.71 242.381H1286.03ZM1296.04 249.213C1294.92 249.213 1293.95 248.986 1293.14 248.531C1292.34 248.072 1291.72 247.423 1291.28 246.585C1290.84 245.742 1290.63 244.746 1290.63 243.595C1290.63 242.473 1290.84 241.488 1291.28 240.641C1291.72 239.793 1292.33 239.133 1293.12 238.659C1293.91 238.186 1294.85 237.949 1295.92 237.949C1296.64 237.949 1297.31 238.065 1297.93 238.297C1298.55 238.524 1299.1 238.867 1299.56 239.327C1300.03 239.786 1300.39 240.364 1300.65 241.06C1300.92 241.751 1301.05 242.561 1301.05 243.489V244.32H1291.83V242.445H1298.2C1298.2 242.009 1298.1 241.623 1297.91 241.287C1297.72 240.951 1297.46 240.688 1297.12 240.499C1296.79 240.304 1296.41 240.207 1295.97 240.207C1295.51 240.207 1295.1 240.314 1294.75 240.527C1294.4 240.735 1294.12 241.017 1293.92 241.372C1293.72 241.723 1293.62 242.113 1293.62 242.544V244.327C1293.62 244.866 1293.72 245.333 1293.91 245.726C1294.12 246.119 1294.4 246.422 1294.77 246.635C1295.14 246.848 1295.58 246.955 1296.09 246.955C1296.42 246.955 1296.73 246.907 1297.01 246.812C1297.29 246.718 1297.53 246.576 1297.73 246.386C1297.93 246.197 1298.08 245.965 1298.18 245.69L1300.98 245.875C1300.84 246.547 1300.55 247.134 1300.11 247.636C1299.67 248.134 1299.11 248.522 1298.42 248.801C1297.73 249.076 1296.94 249.213 1296.04 249.213ZM1306.13 249.206C1305.43 249.206 1304.81 249.085 1304.27 248.844C1303.73 248.598 1303.29 248.235 1302.98 247.757C1302.66 247.274 1302.51 246.673 1302.51 245.953C1302.51 245.347 1302.62 244.838 1302.84 244.426C1303.06 244.014 1303.37 243.683 1303.75 243.432C1304.13 243.181 1304.57 242.991 1305.06 242.864C1305.55 242.736 1306.07 242.646 1306.61 242.594C1307.24 242.527 1307.75 242.466 1308.14 242.409C1308.53 242.348 1308.81 242.258 1308.99 242.139C1309.16 242.021 1309.25 241.846 1309.25 241.614V241.571C1309.25 241.121 1309.11 240.773 1308.82 240.527C1308.54 240.281 1308.15 240.158 1307.63 240.158C1307.08 240.158 1306.65 240.278 1306.33 240.52C1306.01 240.757 1305.79 241.055 1305.69 241.415L1302.89 241.188C1303.03 240.525 1303.31 239.952 1303.73 239.469C1304.15 238.981 1304.68 238.607 1305.34 238.347C1306.01 238.081 1306.77 237.949 1307.64 237.949C1308.25 237.949 1308.83 238.02 1309.38 238.162C1309.94 238.304 1310.44 238.524 1310.87 238.822C1311.3 239.121 1311.65 239.504 1311.9 239.973C1312.15 240.437 1312.27 240.993 1312.27 241.642V249H1309.4V247.487H1309.32C1309.14 247.828 1308.91 248.129 1308.62 248.389C1308.32 248.645 1307.97 248.846 1307.56 248.993C1307.15 249.135 1306.67 249.206 1306.13 249.206ZM1307 247.118C1307.44 247.118 1307.84 247.03 1308.18 246.855C1308.52 246.675 1308.78 246.434 1308.98 246.131C1309.17 245.828 1309.27 245.484 1309.27 245.101V243.943C1309.18 244.005 1309.04 244.062 1308.88 244.114C1308.72 244.161 1308.54 244.206 1308.33 244.249C1308.13 244.286 1307.93 244.322 1307.72 244.355C1307.52 244.384 1307.33 244.41 1307.17 244.433C1306.81 244.485 1306.5 244.568 1306.24 244.682C1305.97 244.795 1305.77 244.949 1305.62 245.143C1305.47 245.333 1305.4 245.57 1305.4 245.854C1305.4 246.266 1305.55 246.58 1305.85 246.798C1306.15 247.011 1306.53 247.118 1307 247.118ZM1319.55 249.213C1318.43 249.213 1317.47 248.976 1316.67 248.503C1315.87 248.025 1315.25 247.362 1314.82 246.514C1314.39 245.667 1314.18 244.691 1314.18 243.588C1314.18 242.471 1314.4 241.491 1314.83 240.648C1315.26 239.8 1315.88 239.14 1316.68 238.666C1317.48 238.188 1318.43 237.949 1319.54 237.949C1320.49 237.949 1321.32 238.122 1322.04 238.467C1322.75 238.813 1323.32 239.298 1323.73 239.923C1324.15 240.548 1324.38 241.282 1324.42 242.125H1321.57C1321.49 241.58 1321.27 241.143 1320.93 240.811C1320.59 240.475 1320.14 240.307 1319.59 240.307C1319.12 240.307 1318.71 240.435 1318.36 240.69C1318.01 240.941 1317.74 241.308 1317.55 241.791C1317.35 242.274 1317.26 242.859 1317.26 243.545C1317.26 244.241 1317.35 244.833 1317.54 245.321C1317.73 245.809 1318.01 246.18 1318.36 246.436C1318.71 246.692 1319.12 246.82 1319.59 246.82C1319.93 246.82 1320.24 246.749 1320.52 246.607C1320.8 246.464 1321.03 246.259 1321.21 245.989C1321.39 245.714 1321.51 245.385 1321.57 245.001H1324.42C1324.38 245.835 1324.15 246.569 1323.74 247.203C1323.34 247.833 1322.78 248.325 1322.07 248.68C1321.36 249.036 1320.52 249.213 1319.55 249.213ZM1332.16 238.091V240.364H1325.59V238.091H1332.16ZM1327.08 235.477H1330.11V245.648C1330.11 245.927 1330.15 246.145 1330.24 246.301C1330.32 246.453 1330.44 246.559 1330.59 246.621C1330.75 246.682 1330.93 246.713 1331.13 246.713C1331.27 246.713 1331.42 246.701 1331.56 246.678C1331.7 246.649 1331.81 246.628 1331.89 246.614L1332.36 248.865C1332.21 248.912 1332 248.967 1331.72 249.028C1331.45 249.095 1331.11 249.135 1330.72 249.149C1329.99 249.178 1329.35 249.08 1328.8 248.858C1328.26 248.635 1327.83 248.29 1327.53 247.821C1327.23 247.352 1327.08 246.76 1327.08 246.045V235.477Z" fill="black"/>
<rect x="1486" y="205" width="348" height="73" fill="#D9D9D9" stroke="black" stroke-width="2"/>
<path d="M1543.63 241.727C1543.63 243.313 1543.33 244.663 1542.73 245.776C1542.13 246.888 1541.32 247.738 1540.29 248.325C1539.26 248.908 1538.1 249.199 1536.82 249.199C1535.53 249.199 1534.37 248.905 1533.34 248.318C1532.31 247.731 1531.5 246.881 1530.9 245.768C1530.31 244.656 1530.01 243.309 1530.01 241.727C1530.01 240.141 1530.31 238.792 1530.9 237.679C1531.5 236.566 1532.31 235.719 1533.34 235.136C1534.37 234.549 1535.53 234.256 1536.82 234.256C1538.1 234.256 1539.26 234.549 1540.29 235.136C1541.32 235.719 1542.13 236.566 1542.73 237.679C1543.33 238.792 1543.63 240.141 1543.63 241.727ZM1540.51 241.727C1540.51 240.7 1540.36 239.833 1540.05 239.128C1539.75 238.422 1539.32 237.887 1538.77 237.523C1538.21 237.158 1537.56 236.976 1536.82 236.976C1536.08 236.976 1535.43 237.158 1534.87 237.523C1534.32 237.887 1533.89 238.422 1533.58 239.128C1533.28 239.833 1533.13 240.7 1533.13 241.727C1533.13 242.755 1533.28 243.621 1533.58 244.327C1533.89 245.032 1534.32 245.567 1534.87 245.932C1535.43 246.296 1536.08 246.479 1536.82 246.479C1537.56 246.479 1538.21 246.296 1538.77 245.932C1539.32 245.567 1539.75 245.032 1540.05 244.327C1540.36 243.621 1540.51 242.755 1540.51 241.727ZM1545.85 253.091V238.091H1548.83V239.923H1548.97C1549.1 239.63 1549.29 239.331 1549.55 239.028C1549.8 238.721 1550.13 238.465 1550.54 238.261C1550.95 238.053 1551.46 237.949 1552.07 237.949C1552.87 237.949 1553.6 238.157 1554.28 238.574C1554.95 238.986 1555.48 239.608 1555.89 240.442C1556.29 241.27 1556.49 242.31 1556.49 243.56C1556.49 244.777 1556.29 245.804 1555.9 246.642C1555.51 247.475 1554.98 248.107 1554.31 248.538C1553.64 248.964 1552.9 249.178 1552.07 249.178C1551.48 249.178 1550.98 249.08 1550.57 248.886C1550.16 248.692 1549.83 248.448 1549.57 248.155C1549.31 247.857 1549.11 247.556 1548.97 247.253H1548.88V253.091H1545.85ZM1548.81 243.545C1548.81 244.194 1548.9 244.76 1549.08 245.243C1549.26 245.726 1549.52 246.102 1549.86 246.372C1550.21 246.637 1550.62 246.77 1551.11 246.77C1551.6 246.77 1552.02 246.635 1552.36 246.365C1552.7 246.09 1552.96 245.712 1553.13 245.229C1553.31 244.741 1553.4 244.18 1553.4 243.545C1553.4 242.916 1553.31 242.362 1553.14 241.884C1552.96 241.405 1552.71 241.031 1552.36 240.761C1552.02 240.491 1551.6 240.357 1551.11 240.357C1550.62 240.357 1550.2 240.487 1549.86 240.747C1549.52 241.008 1549.26 241.377 1549.08 241.855C1548.9 242.333 1548.81 242.897 1548.81 243.545ZM1563.48 249.213C1562.36 249.213 1561.39 248.986 1560.58 248.531C1559.78 248.072 1559.16 247.423 1558.72 246.585C1558.29 245.742 1558.07 244.746 1558.07 243.595C1558.07 242.473 1558.29 241.488 1558.72 240.641C1559.16 239.793 1559.77 239.133 1560.56 238.659C1561.36 238.186 1562.29 237.949 1563.36 237.949C1564.08 237.949 1564.75 238.065 1565.37 238.297C1565.99 238.524 1566.54 238.867 1567 239.327C1567.47 239.786 1567.84 240.364 1568.1 241.06C1568.36 241.751 1568.49 242.561 1568.49 243.489V244.32H1559.28V242.445H1565.64C1565.64 242.009 1565.54 241.623 1565.35 241.287C1565.17 240.951 1564.9 240.688 1564.57 240.499C1564.23 240.304 1563.85 240.207 1563.41 240.207C1562.95 240.207 1562.54 240.314 1562.19 240.527C1561.84 240.735 1561.56 241.017 1561.36 241.372C1561.16 241.723 1561.06 242.113 1561.06 242.544V244.327C1561.06 244.866 1561.16 245.333 1561.36 245.726C1561.56 246.119 1561.85 246.422 1562.22 246.635C1562.58 246.848 1563.02 246.955 1563.53 246.955C1563.87 246.955 1564.17 246.907 1564.45 246.812C1564.73 246.718 1564.97 246.576 1565.17 246.386C1565.37 246.197 1565.52 245.965 1565.62 245.69L1568.42 245.875C1568.28 246.547 1567.99 247.134 1567.55 247.636C1567.11 248.134 1566.55 248.522 1565.86 248.801C1565.17 249.076 1564.38 249.213 1563.48 249.213ZM1573.49 242.693V249H1570.46V238.091H1573.34V240.016H1573.47C1573.71 239.381 1574.12 238.879 1574.69 238.51C1575.26 238.136 1575.94 237.949 1576.75 237.949C1577.51 237.949 1578.17 238.115 1578.74 238.446C1579.3 238.777 1579.74 239.251 1580.05 239.866C1580.36 240.477 1580.52 241.206 1580.52 242.054V249H1577.49V242.594C1577.5 241.926 1577.33 241.405 1576.98 241.031C1576.64 240.652 1576.16 240.463 1575.55 240.463C1575.15 240.463 1574.79 240.551 1574.47 240.726C1574.17 240.901 1573.92 241.157 1573.75 241.493C1573.58 241.824 1573.49 242.224 1573.49 242.693ZM1594.53 244.355V238.091H1597.55V249H1594.65V247.018H1594.53C1594.29 247.658 1593.88 248.171 1593.31 248.56C1592.74 248.948 1592.04 249.142 1591.22 249.142C1590.5 249.142 1589.85 248.976 1589.3 248.645C1588.75 248.313 1588.31 247.842 1588 247.232C1587.69 246.621 1587.54 245.889 1587.53 245.037V238.091H1590.56V244.497C1590.56 245.141 1590.73 245.65 1591.08 246.024C1591.42 246.398 1591.87 246.585 1592.45 246.585C1592.81 246.585 1593.15 246.502 1593.47 246.337C1593.79 246.166 1594.04 245.915 1594.24 245.584C1594.44 245.252 1594.53 244.843 1594.53 244.355ZM1609.05 241.202L1606.28 241.372C1606.23 241.135 1606.13 240.922 1605.97 240.733C1605.82 240.539 1605.61 240.385 1605.36 240.271C1605.11 240.153 1604.8 240.094 1604.45 240.094C1603.99 240.094 1603.59 240.193 1603.27 240.392C1602.95 240.586 1602.79 240.847 1602.79 241.173C1602.79 241.434 1602.89 241.654 1603.1 241.834C1603.31 242.014 1603.66 242.158 1604.17 242.267L1606.14 242.665C1607.21 242.883 1608 243.233 1608.52 243.716C1609.04 244.199 1609.3 244.833 1609.3 245.619C1609.3 246.334 1609.09 246.962 1608.67 247.501C1608.25 248.041 1607.68 248.463 1606.95 248.766C1606.22 249.064 1605.39 249.213 1604.44 249.213C1603 249.213 1601.85 248.912 1600.99 248.311C1600.14 247.705 1599.64 246.881 1599.49 245.839L1602.47 245.683C1602.56 246.124 1602.77 246.46 1603.12 246.692C1603.46 246.919 1603.91 247.033 1604.45 247.033C1604.98 247.033 1605.4 246.931 1605.73 246.727C1606.05 246.519 1606.22 246.251 1606.22 245.925C1606.22 245.65 1606.1 245.425 1605.88 245.25C1605.65 245.07 1605.3 244.933 1604.82 244.838L1602.93 244.462C1601.87 244.249 1601.08 243.879 1600.56 243.354C1600.04 242.828 1599.78 242.158 1599.78 241.344C1599.78 240.643 1599.97 240.039 1600.35 239.533C1600.73 239.026 1601.27 238.635 1601.96 238.361C1602.66 238.086 1603.47 237.949 1604.4 237.949C1605.78 237.949 1606.87 238.24 1607.66 238.822C1608.45 239.405 1608.92 240.198 1609.05 241.202ZM1616.18 249.213C1615.05 249.213 1614.09 248.986 1613.28 248.531C1612.47 248.072 1611.85 247.423 1611.42 246.585C1610.98 245.742 1610.76 244.746 1610.76 243.595C1610.76 242.473 1610.98 241.488 1611.42 240.641C1611.85 239.793 1612.47 239.133 1613.26 238.659C1614.05 238.186 1614.98 237.949 1616.05 237.949C1616.77 237.949 1617.44 238.065 1618.06 238.297C1618.69 238.524 1619.23 238.867 1619.7 239.327C1620.17 239.786 1620.53 240.364 1620.79 241.06C1621.05 241.751 1621.18 242.561 1621.18 243.489V244.32H1611.97V242.445H1618.33C1618.33 242.009 1618.24 241.623 1618.05 241.287C1617.86 240.951 1617.6 240.688 1617.26 240.499C1616.93 240.304 1616.54 240.207 1616.1 240.207C1615.64 240.207 1615.24 240.314 1614.88 240.527C1614.53 240.735 1614.26 241.017 1614.06 241.372C1613.86 241.723 1613.76 242.113 1613.75 242.544V244.327C1613.75 244.866 1613.85 245.333 1614.05 245.726C1614.26 246.119 1614.54 246.422 1614.91 246.635C1615.28 246.848 1615.72 246.955 1616.22 246.955C1616.56 246.955 1616.87 246.907 1617.15 246.812C1617.43 246.718 1617.67 246.576 1617.87 246.386C1618.06 246.197 1618.22 245.965 1618.32 245.69L1621.12 245.875C1620.98 246.547 1620.69 247.134 1620.24 247.636C1619.81 248.134 1619.25 248.522 1618.55 248.801C1617.87 249.076 1617.07 249.213 1616.18 249.213ZM1623.16 249V238.091H1626.09V239.994H1626.2C1626.4 239.317 1626.74 238.806 1627.2 238.46C1627.67 238.11 1628.21 237.935 1628.82 237.935C1628.98 237.935 1629.14 237.944 1629.31 237.963C1629.49 237.982 1629.64 238.008 1629.78 238.041V240.726C1629.63 240.683 1629.44 240.645 1629.19 240.612C1628.94 240.579 1628.71 240.562 1628.5 240.562C1628.05 240.562 1627.65 240.66 1627.3 240.854C1626.96 241.043 1626.68 241.308 1626.48 241.649C1626.28 241.99 1626.18 242.383 1626.18 242.828V249H1623.16ZM1635.97 249V238.091H1638.99V249H1635.97ZM1637.49 236.685C1637.04 236.685 1636.65 236.536 1636.33 236.237C1636.01 235.934 1635.86 235.572 1635.86 235.151C1635.86 234.734 1636.01 234.376 1636.33 234.078C1636.65 233.775 1637.04 233.624 1637.49 233.624C1637.94 233.624 1638.32 233.775 1638.64 234.078C1638.96 234.376 1639.12 234.734 1639.12 235.151C1639.12 235.572 1638.96 235.934 1638.64 236.237C1638.32 236.536 1637.94 236.685 1637.49 236.685ZM1644.44 242.693V249H1641.42V238.091H1644.3V240.016H1644.43C1644.67 239.381 1645.08 238.879 1645.64 238.51C1646.21 238.136 1646.9 237.949 1647.71 237.949C1648.47 237.949 1649.13 238.115 1649.69 238.446C1650.26 238.777 1650.69 239.251 1651.01 239.866C1651.32 240.477 1651.48 241.206 1651.48 242.054V249H1648.45V242.594C1648.45 241.926 1648.28 241.405 1647.94 241.031C1647.59 240.652 1647.12 240.463 1646.51 240.463C1646.1 240.463 1645.74 240.551 1645.43 240.726C1645.12 240.901 1644.88 241.157 1644.71 241.493C1644.54 241.824 1644.45 242.224 1644.44 242.693ZM1659.73 238.091V240.364H1652.99V238.091H1659.73ZM1654.53 249V237.303C1654.53 236.512 1654.69 235.856 1655 235.335C1655.31 234.814 1655.73 234.424 1656.27 234.163C1656.81 233.903 1657.43 233.773 1658.11 233.773C1658.58 233.773 1659 233.808 1659.39 233.879C1659.77 233.95 1660.06 234.014 1660.25 234.071L1659.71 236.344C1659.59 236.306 1659.45 236.27 1659.27 236.237C1659.1 236.204 1658.93 236.188 1658.75 236.188C1658.3 236.188 1657.99 236.292 1657.82 236.5C1657.64 236.704 1657.55 236.99 1657.55 237.359V249H1654.53ZM1666.11 249.213C1665.01 249.213 1664.06 248.979 1663.25 248.51C1662.45 248.036 1661.83 247.378 1661.4 246.536C1660.96 245.688 1660.74 244.705 1660.74 243.588C1660.74 242.461 1660.96 241.476 1661.4 240.634C1661.83 239.786 1662.45 239.128 1663.25 238.659C1664.06 238.186 1665.01 237.949 1666.11 237.949C1667.22 237.949 1668.17 238.186 1668.97 238.659C1669.77 239.128 1670.39 239.786 1670.83 240.634C1671.26 241.476 1671.48 242.461 1671.48 243.588C1671.48 244.705 1671.26 245.688 1670.83 246.536C1670.39 247.378 1669.77 248.036 1668.97 248.51C1668.17 248.979 1667.22 249.213 1666.11 249.213ZM1666.13 246.869C1666.63 246.869 1667.05 246.727 1667.38 246.443C1667.72 246.154 1667.97 245.761 1668.14 245.264C1668.32 244.767 1668.41 244.201 1668.41 243.567C1668.41 242.932 1668.32 242.366 1668.14 241.869C1667.97 241.372 1667.72 240.979 1667.38 240.69C1667.05 240.402 1666.63 240.257 1666.13 240.257C1665.62 240.257 1665.19 240.402 1664.85 240.69C1664.51 240.979 1664.25 241.372 1664.07 241.869C1663.9 242.366 1663.82 242.932 1663.82 243.567C1663.82 244.201 1663.9 244.767 1664.07 245.264C1664.25 245.761 1664.51 246.154 1664.85 246.443C1665.19 246.727 1665.62 246.869 1666.13 246.869ZM1678.08 249V238.091H1681.1V249H1678.08ZM1679.6 236.685C1679.15 236.685 1678.76 236.536 1678.44 236.237C1678.12 235.934 1677.96 235.572 1677.96 235.151C1677.96 234.734 1678.12 234.376 1678.44 234.078C1678.76 233.775 1679.15 233.624 1679.6 233.624C1680.05 233.624 1680.43 233.775 1680.75 234.078C1681.07 234.376 1681.23 234.734 1681.23 235.151C1681.23 235.572 1681.07 235.934 1680.75 236.237C1680.43 236.536 1680.05 236.685 1679.6 236.685ZM1686.55 242.693V249H1683.53V238.091H1686.41V240.016H1686.54C1686.78 239.381 1687.19 238.879 1687.75 238.51C1688.32 238.136 1689.01 237.949 1689.82 237.949C1690.58 237.949 1691.24 238.115 1691.8 238.446C1692.37 238.777 1692.8 239.251 1693.12 239.866C1693.43 240.477 1693.58 241.206 1693.58 242.054V249H1690.56V242.594C1690.56 241.926 1690.39 241.405 1690.05 241.031C1689.7 240.652 1689.23 240.463 1688.62 240.463C1688.21 240.463 1687.85 240.551 1687.54 240.726C1687.23 240.901 1686.99 241.157 1686.82 241.493C1686.65 241.824 1686.56 242.224 1686.55 242.693ZM1700.6 249V238.091H1703.62V249H1700.6ZM1702.12 236.685C1701.67 236.685 1701.28 236.536 1700.96 236.237C1700.64 235.934 1700.48 235.572 1700.48 235.151C1700.48 234.734 1700.64 234.376 1700.96 234.078C1701.28 233.775 1701.67 233.624 1702.12 233.624C1702.57 233.624 1702.95 233.775 1703.27 234.078C1703.59 234.376 1703.75 234.734 1703.75 235.151C1703.75 235.572 1703.59 235.934 1703.27 236.237C1702.95 236.536 1702.57 236.685 1702.12 236.685ZM1709.07 242.693V249H1706.05V238.091H1708.93V240.016H1709.06C1709.3 239.381 1709.7 238.879 1710.27 238.51C1710.84 238.136 1711.53 237.949 1712.34 237.949C1713.1 237.949 1713.76 238.115 1714.32 238.446C1714.88 238.777 1715.32 239.251 1715.64 239.866C1715.95 240.477 1716.1 241.206 1716.1 242.054V249H1713.08V242.594C1713.08 241.926 1712.91 241.405 1712.57 241.031C1712.22 240.652 1711.75 240.463 1711.14 240.463C1710.73 240.463 1710.37 240.551 1710.06 240.726C1709.75 240.901 1709.51 241.157 1709.34 241.493C1709.17 241.824 1709.08 242.224 1709.07 242.693ZM1725.68 249H1722.39L1727.41 234.455H1731.37L1736.38 249H1733.09L1729.45 237.778H1729.33L1725.68 249ZM1725.48 243.283H1733.26V245.683H1725.48V243.283ZM1741.1 242.693V249H1738.08V238.091H1740.96V240.016H1741.09C1741.33 239.381 1741.74 238.879 1742.3 238.51C1742.87 238.136 1743.56 237.949 1744.37 237.949C1745.13 237.949 1745.79 238.115 1746.35 238.446C1746.92 238.777 1747.35 239.251 1747.67 239.866C1747.98 240.477 1748.14 241.206 1748.14 242.054V249H1745.11V242.594C1745.11 241.926 1744.94 241.405 1744.6 241.031C1744.25 240.652 1743.78 240.463 1743.17 240.463C1742.76 240.463 1742.4 240.551 1742.09 240.726C1741.78 240.901 1741.54 241.157 1741.37 241.493C1741.2 241.824 1741.11 242.224 1741.1 242.693ZM1755.43 253.318C1754.45 253.318 1753.61 253.183 1752.91 252.913C1752.22 252.648 1751.66 252.286 1751.25 251.827C1750.84 251.367 1750.57 250.851 1750.45 250.278L1753.25 249.902C1753.33 250.12 1753.47 250.323 1753.65 250.513C1753.84 250.702 1754.08 250.854 1754.38 250.967C1754.69 251.086 1755.07 251.145 1755.51 251.145C1756.16 251.145 1756.71 250.984 1757.13 250.662C1757.56 250.345 1757.78 249.812 1757.78 249.064V247.068H1757.65C1757.52 247.371 1757.32 247.658 1757.05 247.928C1756.79 248.197 1756.45 248.418 1756.03 248.588C1755.61 248.759 1755.12 248.844 1754.54 248.844C1753.72 248.844 1752.97 248.654 1752.3 248.276C1751.63 247.892 1751.1 247.307 1750.7 246.521C1750.31 245.731 1750.12 244.732 1750.12 243.524C1750.12 242.288 1750.32 241.256 1750.72 240.428C1751.12 239.599 1751.66 238.979 1752.32 238.567C1753 238.155 1753.73 237.949 1754.53 237.949C1755.14 237.949 1755.65 238.053 1756.07 238.261C1756.48 238.465 1756.81 238.721 1757.06 239.028C1757.32 239.331 1757.51 239.63 1757.65 239.923H1757.76V238.091H1760.77V249.107C1760.77 250.035 1760.54 250.811 1760.09 251.436C1759.63 252.061 1759 252.53 1758.2 252.842C1757.4 253.16 1756.48 253.318 1755.43 253.318ZM1755.5 246.571C1755.99 246.571 1756.4 246.45 1756.73 246.209C1757.08 245.963 1757.34 245.612 1757.52 245.158C1757.7 244.698 1757.79 244.149 1757.79 243.51C1757.79 242.871 1757.7 242.317 1757.52 241.848C1757.34 241.375 1757.08 241.008 1756.74 240.747C1756.4 240.487 1755.99 240.357 1755.5 240.357C1755 240.357 1754.58 240.491 1754.24 240.761C1753.9 241.027 1753.64 241.396 1753.47 241.869C1753.29 242.343 1753.2 242.89 1753.2 243.51C1753.2 244.14 1753.29 244.684 1753.47 245.143C1753.65 245.598 1753.91 245.951 1754.24 246.202C1754.58 246.448 1755 246.571 1755.5 246.571ZM1770.17 244.355V238.091H1773.2V249H1770.29V247.018H1770.18C1769.93 247.658 1769.52 248.171 1768.95 248.56C1768.38 248.948 1767.69 249.142 1766.87 249.142C1766.14 249.142 1765.5 248.976 1764.94 248.645C1764.39 248.313 1763.96 247.842 1763.64 247.232C1763.34 246.621 1763.18 245.889 1763.18 245.037V238.091H1766.2V244.497C1766.21 245.141 1766.38 245.65 1766.72 246.024C1767.06 246.398 1767.52 246.585 1768.09 246.585C1768.46 246.585 1768.8 246.502 1769.11 246.337C1769.43 246.166 1769.69 245.915 1769.88 245.584C1770.08 245.252 1770.18 244.843 1770.17 244.355ZM1778.64 234.455V249H1775.62V234.455H1778.64ZM1784.18 249.206C1783.48 249.206 1782.86 249.085 1782.32 248.844C1781.77 248.598 1781.34 248.235 1781.02 247.757C1780.71 247.274 1780.56 246.673 1780.56 245.953C1780.56 245.347 1780.67 244.838 1780.89 244.426C1781.11 244.014 1781.41 243.683 1781.8 243.432C1782.18 243.181 1782.62 242.991 1783.11 242.864C1783.6 242.736 1784.11 242.646 1784.65 242.594C1785.29 242.527 1785.8 242.466 1786.19 242.409C1786.58 242.348 1786.86 242.258 1787.03 242.139C1787.21 242.021 1787.3 241.846 1787.3 241.614V241.571C1787.3 241.121 1787.15 240.773 1786.87 240.527C1786.59 240.281 1786.19 240.158 1785.68 240.158C1785.13 240.158 1784.7 240.278 1784.38 240.52C1784.05 240.757 1783.84 241.055 1783.74 241.415L1780.94 241.188C1781.08 240.525 1781.36 239.952 1781.78 239.469C1782.19 238.981 1782.73 238.607 1783.39 238.347C1784.05 238.081 1784.82 237.949 1785.69 237.949C1786.3 237.949 1786.88 238.02 1787.43 238.162C1787.99 238.304 1788.48 238.524 1788.91 238.822C1789.35 239.121 1789.69 239.504 1789.94 239.973C1790.2 240.437 1790.32 240.993 1790.32 241.642V249H1787.45V247.487H1787.37C1787.19 247.828 1786.96 248.129 1786.66 248.389C1786.37 248.645 1786.02 248.846 1785.61 248.993C1785.19 249.135 1784.72 249.206 1784.18 249.206ZM1785.04 247.118C1785.49 247.118 1785.88 247.03 1786.22 246.855C1786.56 246.675 1786.83 246.434 1787.03 246.131C1787.22 245.828 1787.32 245.484 1787.32 245.101V243.943C1787.22 244.005 1787.09 244.062 1786.93 244.114C1786.77 244.161 1786.58 244.206 1786.38 244.249C1786.18 244.286 1785.97 244.322 1785.77 244.355C1785.56 244.384 1785.38 244.41 1785.21 244.433C1784.86 244.485 1784.55 244.568 1784.28 244.682C1784.02 244.795 1783.81 244.949 1783.67 245.143C1783.52 245.333 1783.45 245.57 1783.45 245.854C1783.45 246.266 1783.6 246.58 1783.89 246.798C1784.2 247.011 1784.58 247.118 1785.04 247.118ZM1792.67 249V238.091H1795.6V239.994H1795.72C1795.91 239.317 1796.25 238.806 1796.72 238.46C1797.19 238.11 1797.73 237.935 1798.34 237.935C1798.49 237.935 1798.65 237.944 1798.83 237.963C1799 237.982 1799.16 238.008 1799.29 238.041V240.726C1799.15 240.683 1798.95 240.645 1798.7 240.612C1798.45 240.579 1798.22 240.562 1798.01 240.562C1797.56 240.562 1797.17 240.66 1796.82 240.854C1796.47 241.043 1796.2 241.308 1795.99 241.649C1795.79 241.99 1795.69 242.383 1795.69 242.828V249H1792.67Z" fill="black"/>
</svg>
